<?xml version="1.0" encoding="utf-8"?>
<!-- Generator: Adobe Illustrator 16.0.0, SVG Export Plug-In . SVG Version: 6.00 Build 0)  -->
<!DOCTYPE svg PUBLIC "-//W3C//DTD SVG 1.1//EN" "http://www.w3.org/Graphics/SVG/1.1/DTD/svg11.dtd">
<svg version="1.1" id="Layer_1" xmlns="http://www.w3.org/2000/svg" xmlns:xlink="http://www.w3.org/1999/xlink" x="0px" y="0px"
	 width="53.219px" height="109.688px" viewBox="0 0 53.219 109.688" enable-background="new 0 0 53.219 109.688"
	 xml:space="preserve">
<path fill="#ff4800" d="M33.203,39.688c0-7.753,0-11.232,0-12.664c0-0.012,0-0.236,0-0.867c0-5.109,1.07-8.188,7.75-8.188
	c6.172,0,11.828,0.055,11.828,0.055l0.438-17.305c0,0-5.547-0.719-13.047-0.719C21.648,0,13.609,11.422,13.609,23.859
	c0,8.234,0,15.828,0,15.828H0v18.531h13.609v51.469h19.594V58.219h19.234l0.875-18.531H33.203z"/>
</svg>
