<svg xmlns="http://www.w3.org/2000/svg" version="1.1" id="Layer_1" x="0px" y="0px" width="52.398px" height="50.085px" viewBox="0 0 52.398 50.085" enable-background="new 0 0 52.398 50.085" xml:space="preserve"><path fill-rule="evenodd" clip-rule="evenodd" fill="#F04C23" d="M11.896 50.085V16.291H0.664v33.794H11.896L11.896 50.085zM6.28 11.679c3.916 0 6.354-2.597 6.354-5.84C12.562 2.524 10.196 0 6.354 0 2.512 0 0 2.524 0 5.839c0 3.243 2.438 5.84 6.207 5.84H6.28L6.28 11.679zM18.111 50.085h11.232V31.213c0-1.01 0.073-2.02 0.37-2.74 0.812-2.019 2.66-4.109 5.763-4.109 4.065 0 5.69 3.1 5.69 7.642v18.079h11.231V30.708c0-10.38-5.541-15.21-12.932-15.21 -6.06 0-8.72 3.388-10.197 5.694h0.074v-4.901H18.111C18.259 19.461 18.111 50.085 18.111 50.085L18.111 50.085z"/></svg>