<?xml version="1.0" encoding="utf-8"?>
<!-- Generator: Adobe Illustrator 16.0.0, SVG Export Plug-In . SVG Version: 6.00 Build 0)  -->
<!DOCTYPE svg PUBLIC "-//W3C//DTD SVG 1.1//EN" "http://www.w3.org/Graphics/SVG/1.1/DTD/svg11.dtd">
<svg version="1.1" id="Layer_1" xmlns="http://www.w3.org/2000/svg" xmlns:xlink="http://www.w3.org/1999/xlink" x="0px" y="0px"
	 width="121.772px" height="156.527px" viewBox="0 0 121.772 156.527" enable-background="new 0 0 121.772 156.527"
	 xml:space="preserve">
<path fill="#FFFFFF" d="M50.056,103.526c-4.11,21.549-9.13,42.209-24,53c-4.59-32.57,6.74-57.031,12-83
	c-8.97-15.101,1.08-45.49,20-38c23.28,9.209-20.16,56.138,9.001,62c30.449,6.119,42.879-52.83,24-72
	c-27.281-27.681-79.411-0.631-73.001,39c1.56,9.689,11.57,12.629,4,26c-17.46-3.871-22.67-17.64-22-36c1.08-30.051,27-51.09,53-54
	c32.88-3.681,63.739,12.069,68.001,43c4.798,34.91-14.842,72.718-50,70C61.526,112.786,57.526,108.065,50.056,103.526z"/>
</svg>
