<svg xmlns="http://www.w3.org/2000/svg" xmlns:xlink="http://www.w3.org/1999/xlink" version="1.1" id="Layer_1" x="0px" y="0px" width="121.772px" height="156.527px" viewBox="0 0 121.772 156.527" enable-background="new 0 0 121.772 156.527" xml:space="preserve">
  <path fill="#FFFFFF" d="M50.056 103.526c-4.11 21.549-9.13 42.209-24 53 -4.59-32.57 6.74-57.031 12-83 -8.97-15.101 1.08-45.49 20-38 23.28 9.209-20.16 56.138 9.001 62 30.449 6.119 42.879-52.83 24-72 -27.281-27.681-79.411-0.631-73.001 39 1.56 9.689 11.57 12.629 4 26 -17.46-3.871-22.67-17.64-22-36 1.08-30.051 27-51.09 53-54 32.88-3.681 63.739 12.069 68.001 43 4.798 34.91-14.842 72.718-50 70C61.526 112.786 57.526 108.065 50.056 103.526z"/>
</svg>