<?xml version="1.0" encoding="utf-8"?>
<!-- Generator: Adobe Illustrator 16.0.0, SVG Export Plug-In . SVG Version: 6.00 Build 0)  -->
<!DOCTYPE svg PUBLIC "-//W3C//DTD SVG 1.1//EN" "http://www.w3.org/Graphics/SVG/1.1/DTD/svg11.dtd">
<svg version="1.1" id="Layer_1" xmlns="http://www.w3.org/2000/svg" xmlns:xlink="http://www.w3.org/1999/xlink" x="0px" y="0px"
	 width="126.081px" height="108.737px" viewBox="0 0 126.081 108.737" enable-background="new 0 0 126.081 108.737"
	 xml:space="preserve">
<path fill-rule="evenodd" clip-rule="evenodd" fill="#FFFFFF" d="M125.544,20.235c0.941-5.279,0.92-10.708-2.34-14.813
	c-4.549-5.756-14.231-5.968-20.865-4.952C96.942,1.295,78.69,9.347,72.479,28.626c11.004-0.836,16.771,0.793,15.712,12.909
	c-0.444,5.068-3.004,10.623-5.861,15.945c-3.302,6.138-9.491,18.189-17.606,9.502c-7.312-7.818-6.762-22.77-8.434-32.727
	c-0.931-5.587-1.915-12.549-3.745-18.294c-1.577-4.941-5.195-10.898-9.618-12.189c-4.751-1.396-10.624,0.783-14.073,2.815
	C17.871,13.04,9.501,22.224,0,29.8v0.709c1.883,1.799,2.391,4.751,5.163,5.153c6.539,0.963,12.771-6.095,17.12,1.249
	c2.645,4.486,3.471,9.406,5.163,14.242c2.265,6.444,4.011,13.459,5.862,20.866c3.132,12.549,6.983,31.299,17.829,35.891
	c5.533,2.35,13.851-0.793,18.062-3.291c11.406-6.75,20.295-16.537,27.902-26.494C114.497,54.56,124.095,27.864,125.544,20.235z"/>
</svg>
