<?xml version="1.0" encoding="utf-8"?>
<!-- Generator: Adobe Illustrator 16.0.0, SVG Export Plug-In . SVG Version: 6.00 Build 0)  -->
<!DOCTYPE svg PUBLIC "-//W3C//DTD SVG 1.1//EN" "http://www.w3.org/Graphics/SVG/1.1/DTD/svg11.dtd">
<svg version="1.1" xmlns="http://www.w3.org/2000/svg" xmlns:xlink="http://www.w3.org/1999/xlink" x="0px" y="0px"
	 width="81.401px" height="139.87px" viewBox="0 0 81.401 139.87" enable-background="new 0 0 81.401 139.87" xml:space="preserve">
<g id="marker">
	<path fill="none" stroke="#000000" stroke-width="3" d="M40.7,80.833"/>
</g>
<g id="dot">
	<path fill="#FF4800" d="M40.7,0C18.258,0,0,18.467,0,41.167c0,5.952,3.28,16.51,12.485,28.293
		c15.39,19.699,25.567,50.546,26.517,68.987l0.073,1.423h3.251l0.073-1.423c0.949-18.441,11.127-49.288,26.517-68.987
		c9.205-11.783,12.485-22.341,12.485-28.293C81.401,18.467,63.143,0,40.7,0z M40.5,56.328c-9.182,0-16.625-7.443-16.625-16.625
		c0-9.182,7.443-16.625,16.625-16.625s16.625,7.443,16.625,16.625C57.125,48.885,49.682,56.328,40.5,56.328z"/>
</g>
<g id="letter_arial_font" display="none">
	<g display="inline">
		<path d="M19.293,58.733l17.594-45.812h6.531l18.75,45.812h-6.906l-5.344-13.875H30.762L25.73,58.733H19.293z M32.512,39.921
			h15.531l-4.781-12.688c-1.459-3.854-2.542-7.021-3.25-9.5c-0.584,2.938-1.406,5.854-2.469,8.75L32.512,39.921z"/>
	</g>
</g>
</svg>
