<?xml version="1.0" encoding="utf-8"?>
<!-- Generator: Adobe Illustrator 15.1.0, SVG Export Plug-In . SVG Version: 6.00 Build 0)  -->
<!DOCTYPE svg PUBLIC "-//W3C//DTD SVG 1.1//EN" "http://www.w3.org/Graphics/SVG/1.1/DTD/svg11.dtd">
<svg version="1.1" xmlns="http://www.w3.org/2000/svg" xmlns:xlink="http://www.w3.org/1999/xlink" x="0px" y="0px" width="469px"
	 height="466px" viewBox="0 0 469 466" enable-background="new 0 0 469 466" xml:space="preserve">
<g id="AGUA" display="none">
	<g display="inline">
		<polygon fill="none" stroke="#1DB1D3" stroke-width="7.0034" stroke-miterlimit="10" points="235.59,458.626 74.32,394.493 
			7.26,234.828 74.225,74.437 233.889,7.374 394.68,72.105 461.74,231.771 395.256,391.565 		"/>
		<polygon fill="#1DB1D3" points="61.38,364.859 86.308,348.561 110.275,369.652 133.285,353.354 151.5,373.488 179.303,361.024 
			201.354,373.488 233.951,361.024 268.464,373.488 298.185,356.231 320.234,373.488 349.955,353.354 385.429,365.818 
			413.231,348.561 395.016,393.621 237.307,457.855 71.926,393.621 		"/>
		<g>
			<path fill="#1DB1D3" d="M153.064,206c-4.397,0-8.412-0.589-12.042-1.767c-3.632-1.178-6.742-2.846-9.333-5.005
				c-2.591-2.159-4.603-4.77-6.036-7.832c-1.434-3.062-2.149-6.478-2.149-10.246c0-5.024,1.237-9.274,3.71-12.749
				s6.32-6.055,11.542-7.743c-4.162-1.727-7.272-4.181-9.333-7.361c-2.061-3.18-3.091-7.007-3.091-11.482
				c0-3.218,0.657-6.222,1.973-9.009c1.315-2.787,3.15-5.211,5.506-7.272s5.172-3.67,8.45-4.829
				c3.277-1.157,6.879-1.737,10.806-1.737c3.925,0,7.527,0.58,10.805,1.737c3.277,1.159,6.095,2.768,8.45,4.829
				c2.355,2.061,4.19,4.485,5.505,7.272c1.315,2.788,1.973,5.791,1.973,9.009c0,4.475-1.041,8.303-3.121,11.482
				c-2.082,3.18-5.182,5.634-9.304,7.361c5.221,1.688,9.068,4.269,11.542,7.743s3.71,7.724,3.71,12.749
				c0,3.769-0.717,7.184-2.149,10.246c-1.434,3.062-3.445,5.673-6.036,7.832c-2.591,2.159-5.703,3.828-9.333,5.005
				C161.474,205.412,157.46,206,153.064,206z M153.064,194.636c2.394,0,4.495-0.343,6.3-1.031c1.805-0.687,3.327-1.639,4.564-2.856
				c1.236-1.216,2.168-2.669,2.797-4.357c0.627-1.688,0.942-3.513,0.942-5.476c0-4.671-1.295-8.205-3.886-10.6
				c-2.591-2.394-6.164-3.592-10.717-3.592c-4.555,0-8.126,1.198-10.717,3.592c-2.591,2.395-3.886,5.928-3.886,10.6
				c0,1.963,0.313,3.789,0.942,5.476c0.628,1.688,1.561,3.141,2.797,4.357c1.236,1.217,2.757,2.169,4.563,2.856
				C148.568,194.292,150.669,194.636,153.064,194.636z M153.064,155.3c2.355,0,4.337-0.373,5.947-1.119
				c1.609-0.745,2.905-1.737,3.886-2.974c0.981-1.237,1.678-2.65,2.09-4.24c0.413-1.59,0.619-3.229,0.619-4.917
				c0-1.609-0.256-3.14-0.766-4.593c-0.511-1.452-1.276-2.738-2.296-3.857c-1.021-1.119-2.317-2.011-3.887-2.679
				c-1.57-0.667-3.436-1.001-5.594-1.001c-2.16,0-4.024,0.334-5.594,1.001c-1.57,0.668-2.876,1.56-3.916,2.679
				c-1.041,1.119-1.806,2.405-2.296,3.857c-0.491,1.453-0.736,2.984-0.736,4.593c0,1.688,0.206,3.327,0.618,4.917
				s1.109,3.003,2.09,4.24c0.981,1.236,2.276,2.229,3.886,2.974C148.726,154.928,150.708,155.3,153.064,155.3z"/>
			<path fill="#1DB1D3" d="M252.578,162.484c0,7.419-0.795,13.867-2.385,19.344c-1.59,5.476-3.789,10.001-6.596,13.573
				c-2.807,3.573-6.125,6.233-9.951,7.979c-3.828,1.746-7.96,2.621-12.396,2.621c-4.437,0-8.548-0.875-12.336-2.621
				c-3.789-1.746-7.077-4.406-9.863-7.979c-2.788-3.572-4.967-8.097-6.536-13.573c-1.571-5.477-2.355-11.924-2.355-19.344
				c0-7.458,0.785-13.916,2.355-19.373c1.569-5.456,3.748-9.971,6.536-13.543c2.787-3.572,6.074-6.232,9.863-7.979
				c3.788-1.746,7.899-2.62,12.336-2.62c4.436,0,8.568,0.874,12.396,2.62c3.826,1.747,7.145,4.407,9.951,7.979
				c2.807,3.573,5.006,8.087,6.596,13.543C251.783,148.568,252.578,155.026,252.578,162.484z M237.562,162.484
				c0-6.163-0.453-11.266-1.355-15.31c-0.902-4.043-2.109-7.262-3.621-9.657c-1.512-2.394-3.249-4.072-5.211-5.035
				c-1.963-0.961-4.004-1.442-6.124-1.442c-2.081,0-4.092,0.481-6.036,1.442c-1.943,0.962-3.661,2.641-5.152,5.035
				c-1.492,2.395-2.679,5.614-3.562,9.657c-0.883,4.044-1.325,9.147-1.325,15.31c0,6.164,0.441,11.267,1.325,15.31
				c0.883,4.044,2.07,7.263,3.562,9.657c1.492,2.395,3.209,4.073,5.152,5.035c1.943,0.962,3.955,1.442,6.036,1.442
				c2.12,0,4.161-0.48,6.124-1.442c1.963-0.961,3.7-2.64,5.211-5.035c1.512-2.394,2.719-5.613,3.621-9.657
				C237.109,173.751,237.562,168.648,237.562,162.484z"/>
			<path fill="#1DB1D3" d="M298.447,140.521c0,3.219-0.54,6.124-1.619,8.715c-1.08,2.591-2.522,4.799-4.328,6.625
				c-1.806,1.826-3.906,3.229-6.301,4.21c-2.395,0.981-4.887,1.472-7.479,1.472c-2.826,0-5.438-0.491-7.831-1.472
				c-2.396-0.981-4.466-2.385-6.213-4.21c-1.747-1.825-3.111-4.034-4.092-6.625c-0.982-2.591-1.473-5.496-1.473-8.715
				c0-3.298,0.49-6.281,1.473-8.951c0.98-2.669,2.345-4.926,4.092-6.771c1.747-1.845,3.817-3.268,6.213-4.27
				c2.394-1.001,5.005-1.501,7.831-1.501c2.827,0,5.447,0.5,7.861,1.501c2.414,1.001,4.505,2.425,6.271,4.27
				c1.767,1.846,3.141,4.103,4.122,6.771C297.956,134.24,298.447,137.223,298.447,140.521z M326.771,122.207
				c0.471-0.589,1.06-1.119,1.767-1.59c0.706-0.471,1.687-0.707,2.943-0.707h10.541l-63.242,82.969
				c-0.472,0.628-1.07,1.148-1.796,1.561c-0.728,0.412-1.601,0.618-2.621,0.618h-10.834L326.771,122.207z M287.2,140.521
				c0-2.276-0.216-4.181-0.647-5.712c-0.433-1.531-1.03-2.768-1.796-3.71c-0.766-0.942-1.669-1.619-2.709-2.031
				s-2.149-0.618-3.327-0.618s-2.276,0.206-3.297,0.618c-1.021,0.412-1.905,1.089-2.65,2.031c-0.746,0.942-1.324,2.179-1.736,3.71
				c-0.413,1.531-0.619,3.436-0.619,5.712c0,2.199,0.206,4.034,0.619,5.506c0.412,1.472,0.99,2.66,1.736,3.562
				c0.745,0.903,1.629,1.551,2.65,1.943c1.021,0.393,2.119,0.589,3.297,0.589s2.287-0.196,3.327-0.589
				c1.04-0.392,1.943-1.04,2.709-1.943c0.766-0.903,1.363-2.091,1.796-3.562C286.984,144.554,287.2,142.719,287.2,140.521z
				 M346.497,185.037c0,3.22-0.54,6.124-1.619,8.715c-1.08,2.591-2.522,4.799-4.328,6.625c-1.806,1.825-3.906,3.238-6.301,4.24
				c-2.395,1.001-4.887,1.501-7.478,1.501c-2.827,0-5.438-0.5-7.832-1.501c-2.395-1.001-4.466-2.415-6.212-4.24
				c-1.748-1.826-3.112-4.034-4.093-6.625c-0.981-2.591-1.473-5.496-1.473-8.715c0-3.297,0.491-6.28,1.473-8.95
				c0.98-2.669,2.345-4.926,4.093-6.772c1.746-1.845,3.817-3.268,6.212-4.269c2.394-1.001,5.005-1.501,7.832-1.501
				c2.826,0,5.446,0.5,7.86,1.501c2.415,1.001,4.505,2.424,6.271,4.269c1.767,1.846,3.141,4.103,4.122,6.772
				C346.006,178.757,346.497,181.74,346.497,185.037z M335.31,185.037c0-2.276-0.227-4.181-0.678-5.711
				c-0.451-1.531-1.06-2.768-1.825-3.71s-1.669-1.619-2.709-2.032c-1.04-0.412-2.148-0.618-3.326-0.618s-2.277,0.206-3.298,0.618
				c-1.021,0.413-1.895,1.089-2.62,2.032c-0.728,0.942-1.306,2.179-1.737,3.71c-0.433,1.531-0.647,3.436-0.647,5.711
				c0,2.199,0.215,4.044,0.647,5.535c0.432,1.493,1.01,2.689,1.737,3.592c0.726,0.903,1.599,1.551,2.62,1.943
				c1.021,0.393,2.12,0.589,3.298,0.589s2.286-0.196,3.326-0.589c1.04-0.392,1.943-1.04,2.709-1.943
				c0.766-0.903,1.374-2.1,1.825-3.592C335.083,189.081,335.31,187.236,335.31,185.037z"/>
		</g>
		<g>
			<path fill="#CCCCCC" d="M157.744,250.164c0.275,0.656,0.546,1.317,0.813,1.982c0.266-0.685,0.542-1.359,0.827-2.024
				c0.285-0.666,0.589-1.303,0.913-1.911l12.208-22.848c0.152-0.285,0.309-0.514,0.47-0.685c0.162-0.171,0.342-0.294,0.542-0.371
				c0.2-0.076,0.423-0.123,0.67-0.143c0.247-0.019,0.542-0.028,0.884-0.028h5.791v41.245h-6.76v-26.641
				c0-0.495,0.014-1.037,0.043-1.626c0.028-0.59,0.071-1.188,0.128-1.797l-12.465,23.389c-0.285,0.533-0.656,0.946-1.112,1.241
				c-0.456,0.295-0.989,0.442-1.597,0.442h-1.055c-0.609,0-1.141-0.147-1.598-0.442c-0.456-0.295-0.827-0.708-1.112-1.241
				l-12.636-23.475c0.076,0.628,0.128,1.241,0.157,1.84c0.028,0.599,0.042,1.155,0.042,1.669v26.641h-6.76v-41.245h5.79
				c0.342,0,0.637,0.01,0.884,0.028c0.247,0.02,0.471,0.067,0.67,0.143c0.2,0.077,0.385,0.2,0.556,0.371
				c0.171,0.171,0.333,0.399,0.485,0.685l12.322,22.904C157.168,248.877,157.468,249.509,157.744,250.164z"/>
			<path fill="#CCCCCC" d="M215.204,224.137v6.104h-18.283v11.438h14.404v5.904h-14.404v11.666h18.283v6.133h-26.013v-41.245
				H215.204z"/>
			<path fill="#CCCCCC" d="M226.728,224.18c0.228,0.028,0.432,0.085,0.613,0.171c0.181,0.085,0.356,0.209,0.528,0.371
				c0.171,0.162,0.361,0.375,0.57,0.642l21.649,27.582c-0.076-0.665-0.128-1.316-0.156-1.954c-0.028-0.637-0.043-1.23-0.043-1.782
				v-25.072h6.76v41.245h-3.965c-0.608,0-1.112-0.095-1.512-0.285c-0.399-0.189-0.789-0.532-1.169-1.027l-21.564-27.468
				c0.057,0.608,0.1,1.212,0.128,1.812c0.028,0.599,0.042,1.146,0.042,1.64v25.329h-6.76v-41.245h4.021
				C226.214,224.137,226.5,224.151,226.728,224.18z"/>
			<path fill="#CCCCCC" d="M304.54,244.759c0,3.024-0.504,5.824-1.512,8.4c-1.008,2.577-2.425,4.807-4.25,6.689
				c-1.825,1.882-4.021,3.352-6.589,4.406c-2.567,1.056-5.41,1.583-8.528,1.583c-3.119,0-5.967-0.527-8.543-1.583
				c-2.577-1.055-4.782-2.524-6.617-4.406c-1.836-1.883-3.257-4.112-4.265-6.689c-1.008-2.576-1.512-5.376-1.512-8.4
				c0-3.023,0.504-5.823,1.512-8.399c1.008-2.577,2.429-4.807,4.265-6.689c1.835-1.883,4.04-3.352,6.617-4.407
				c2.576-1.055,5.424-1.583,8.543-1.583c3.118,0,5.961,0.533,8.528,1.598s4.764,2.534,6.589,4.407
				c1.825,1.873,3.242,4.098,4.25,6.675C304.036,238.936,304.54,241.735,304.54,244.759z M296.668,244.759
				c0-2.263-0.3-4.292-0.898-6.089c-0.6-1.798-1.46-3.323-2.582-4.579c-1.122-1.255-2.486-2.215-4.093-2.881
				c-1.607-0.666-3.419-0.998-5.434-0.998c-2.016,0-3.832,0.333-5.448,0.998c-1.616,0.666-2.99,1.626-4.122,2.881
				c-1.131,1.255-2.001,2.781-2.609,4.579c-0.609,1.797-0.913,3.826-0.913,6.089c0,2.264,0.304,4.293,0.913,6.09
				c0.608,1.798,1.479,3.319,2.609,4.564c1.132,1.245,2.506,2.201,4.122,2.866c1.616,0.666,3.433,0.998,5.448,0.998
				c2.015,0,3.826-0.332,5.434-0.998c1.606-0.665,2.971-1.621,4.093-2.866s1.982-2.767,2.582-4.564
				C296.368,249.052,296.668,247.022,296.668,244.759z"/>
			<path fill="#CCCCCC" d="M332.693,231.638c-0.21,0.419-0.452,0.713-0.728,0.884c-0.276,0.171-0.604,0.257-0.984,0.257
				s-0.809-0.147-1.283-0.442c-0.476-0.295-1.037-0.623-1.683-0.984c-0.647-0.361-1.403-0.689-2.268-0.984
				c-0.866-0.294-1.888-0.442-3.066-0.442c-1.065,0-1.992,0.128-2.781,0.385s-1.455,0.613-1.997,1.07
				c-0.542,0.456-0.946,1.003-1.212,1.64c-0.267,0.637-0.399,1.335-0.399,2.096c0,0.97,0.271,1.778,0.812,2.425
				c0.542,0.646,1.26,1.198,2.154,1.654c0.894,0.456,1.911,0.865,3.052,1.227s2.306,0.746,3.494,1.155s2.354,0.884,3.494,1.426
				s2.158,1.227,3.052,2.054s1.611,1.84,2.153,3.038s0.813,2.652,0.813,4.364c0,1.863-0.318,3.608-0.956,5.233
				c-0.637,1.626-1.568,3.043-2.795,4.25c-1.227,1.208-2.724,2.159-4.492,2.853c-1.769,0.694-3.794,1.041-6.076,1.041
				c-1.312,0-2.605-0.128-3.879-0.385c-1.274-0.257-2.496-0.623-3.665-1.098c-1.17-0.476-2.264-1.046-3.28-1.712
				c-1.018-0.665-1.926-1.407-2.725-2.225l2.226-3.68c0.209-0.267,0.461-0.489,0.756-0.67c0.294-0.181,0.622-0.271,0.983-0.271
				c0.476,0,0.989,0.195,1.541,0.585c0.551,0.39,1.202,0.822,1.953,1.298s1.636,0.908,2.653,1.298
				c1.017,0.39,2.239,0.585,3.665,0.585c2.187,0,3.879-0.519,5.077-1.555s1.797-2.524,1.797-4.464c0-1.084-0.271-1.969-0.812-2.653
				s-1.26-1.259-2.153-1.726c-0.895-0.466-1.911-0.86-3.053-1.184c-1.141-0.323-2.301-0.675-3.479-1.056
				c-1.18-0.38-2.339-0.836-3.48-1.369c-1.141-0.532-2.158-1.227-3.052-2.082s-1.611-1.925-2.153-3.209
				c-0.542-1.283-0.812-2.866-0.812-4.749c0-1.502,0.299-2.966,0.898-4.393c0.599-1.426,1.473-2.69,2.624-3.793
				c1.15-1.103,2.562-1.987,4.235-2.653c1.673-0.666,3.584-0.999,5.733-0.999c2.434,0,4.678,0.381,6.731,1.141
				c2.054,0.761,3.803,1.826,5.248,3.195L332.693,231.638z"/>
			<path fill="#CCCCCC" d="M194.496,316.56h-5.933c-0.666,0-1.212-0.166-1.64-0.499c-0.428-0.333-0.737-0.746-0.927-1.241
				l-3.081-8.414H165.83l-3.081,8.414c-0.153,0.438-0.452,0.837-0.899,1.198s-0.994,0.542-1.64,0.542h-5.962l16.202-41.245h7.844
				L194.496,316.56z M167.798,300.985h13.149l-5.02-13.72c-0.228-0.608-0.48-1.326-0.756-2.153
				c-0.276-0.827-0.547-1.726-0.813-2.695c-0.267,0.97-0.528,1.873-0.784,2.71c-0.257,0.837-0.509,1.568-0.756,2.196
				L167.798,300.985z"/>
			<path fill="#CCCCCC" d="M216.23,310.912c1.73,0,3.237-0.157,4.521-0.471s2.505-0.746,3.666-1.298v-7.502h-5.163
				c-0.495,0-0.884-0.138-1.169-0.413s-0.428-0.613-0.428-1.013v-4.336h13.72v16.687c-1.047,0.761-2.135,1.422-3.266,1.982
				c-1.132,0.561-2.339,1.022-3.623,1.383c-1.284,0.362-2.658,0.633-4.122,0.813c-1.465,0.181-3.043,0.271-4.735,0.271
				c-3.004,0-5.771-0.522-8.3-1.568c-2.529-1.046-4.716-2.5-6.56-4.364c-1.845-1.863-3.285-4.088-4.321-6.675
				c-1.037-2.586-1.555-5.409-1.555-8.472c0-3.099,0.503-5.941,1.512-8.528c1.008-2.586,2.438-4.811,4.293-6.674
				c1.854-1.864,4.102-3.31,6.746-4.336c2.643-1.027,5.609-1.54,8.899-1.54c3.366,0,6.28,0.499,8.743,1.497
				c2.462,0.998,4.549,2.296,6.26,3.894l-2.225,3.479c-0.438,0.704-1.017,1.056-1.74,1.056c-0.457,0-0.922-0.152-1.397-0.456
				c-0.609-0.361-1.231-0.723-1.869-1.084s-1.34-0.675-2.11-0.941c-0.771-0.266-1.636-0.485-2.596-0.656
				c-0.96-0.171-2.068-0.257-3.323-0.257c-2.035,0-3.875,0.343-5.519,1.027c-1.645,0.685-3.048,1.664-4.208,2.938
				c-1.16,1.274-2.054,2.806-2.681,4.593s-0.941,3.784-0.941,5.989c0,2.378,0.333,4.493,0.999,6.347
				c0.666,1.854,1.597,3.419,2.795,4.692c1.198,1.274,2.624,2.249,4.278,2.924S214.272,310.912,216.23,310.912z"/>
			<path fill="#CCCCCC" d="M255.138,310.37c1.482,0,2.81-0.247,3.979-0.742c1.17-0.494,2.158-1.188,2.967-2.082
				c0.808-0.894,1.426-1.978,1.854-3.252c0.428-1.273,0.642-2.699,0.642-4.278v-24.701h7.673v24.701
				c0,2.453-0.395,4.721-1.184,6.803c-0.789,2.083-1.925,3.88-3.408,5.392s-3.28,2.69-5.391,3.537
				c-2.111,0.846-4.488,1.269-7.131,1.269c-2.644,0-5.021-0.423-7.131-1.269c-2.111-0.847-3.903-2.025-5.377-3.537
				s-2.605-3.309-3.395-5.392c-0.789-2.082-1.184-4.35-1.184-6.803v-24.701h7.673v24.673c0,1.579,0.214,3.005,0.642,4.278
				c0.428,1.274,1.041,2.363,1.84,3.267s1.782,1.602,2.952,2.096C252.328,310.123,253.654,310.37,255.138,310.37z"/>
			<path fill="#CCCCCC" d="M314.838,316.56h-5.933c-0.666,0-1.213-0.166-1.641-0.499s-0.737-0.746-0.927-1.241l-3.081-8.414h-17.085
				l-3.081,8.414c-0.152,0.438-0.451,0.837-0.898,1.198s-0.993,0.542-1.64,0.542h-5.962l16.201-41.245h7.845L314.838,316.56z
				 M288.14,300.985h13.149l-5.021-13.72c-0.228-0.608-0.48-1.326-0.756-2.153s-0.547-1.726-0.812-2.695
				c-0.267,0.97-0.527,1.873-0.784,2.71s-0.509,1.568-0.756,2.196L288.14,300.985z"/>
		</g>
	</g>
</g>
<g id="NIQUEL" display="none">
	<g display="inline">
		<polygon fill="none" stroke="#1DB1D3" stroke-width="7.0034" stroke-miterlimit="10" points="235.59,458.626 74.32,394.493 
			7.26,234.828 74.225,74.437 233.889,7.374 394.68,72.105 461.74,231.771 395.256,391.565 		"/>
		<g>
			<path fill="#1DB1D3" d="M218.425,169.484c0,7.419-0.795,13.867-2.385,19.344c-1.59,5.476-3.789,10.001-6.595,13.573
				c-2.807,3.573-6.124,6.233-9.952,7.979S191.534,213,187.098,213c-4.437,0-8.548-0.875-12.336-2.621
				c-3.789-1.746-7.077-4.406-9.863-7.979c-2.788-3.572-4.967-8.097-6.536-13.573c-1.571-5.477-2.355-11.924-2.355-19.344
				c0-7.458,0.785-13.916,2.355-19.373c1.569-5.456,3.748-9.971,6.536-13.543c2.787-3.572,6.074-6.232,9.863-7.979
				c3.788-1.746,7.899-2.62,12.336-2.62c4.436,0,8.568,0.874,12.396,2.62c3.828,1.747,7.145,4.407,9.952,7.979
				c2.806,3.573,5.005,8.087,6.595,13.543C217.63,155.568,218.425,162.026,218.425,169.484z M203.41,169.484
				c0-6.163-0.452-11.266-1.354-15.31c-0.904-4.043-2.111-7.262-3.622-9.657c-1.512-2.394-3.249-4.072-5.211-5.035
				c-1.963-0.961-4.004-1.442-6.124-1.442c-2.081,0-4.092,0.481-6.036,1.442c-1.943,0.962-3.661,2.641-5.152,5.035
				c-1.492,2.395-2.679,5.614-3.562,9.657c-0.883,4.044-1.325,9.147-1.325,15.31c0,6.164,0.441,11.267,1.325,15.31
				c0.883,4.044,2.07,7.263,3.562,9.657c1.492,2.395,3.209,4.073,5.152,5.035c1.943,0.962,3.955,1.442,6.036,1.442
				c2.12,0,4.161-0.48,6.124-1.442c1.963-0.961,3.7-2.64,5.211-5.035c1.511-2.394,2.718-5.613,3.622-9.657
				C202.958,180.751,203.41,175.648,203.41,169.484z"/>
			<path fill="#1DB1D3" d="M264.295,147.521c0,3.219-0.541,6.124-1.619,8.715c-1.08,2.591-2.523,4.799-4.328,6.625
				c-1.807,1.826-3.907,3.229-6.301,4.21c-2.395,0.981-4.888,1.472-7.479,1.472c-2.826,0-5.438-0.491-7.832-1.472
				c-2.395-0.981-4.466-2.385-6.212-4.21c-1.748-1.825-3.112-4.034-4.093-6.625c-0.981-2.591-1.472-5.496-1.472-8.715
				c0-3.298,0.491-6.281,1.472-8.951c0.981-2.669,2.345-4.926,4.093-6.771c1.746-1.845,3.817-3.268,6.212-4.27
				c2.394-1.001,5.005-1.501,7.832-1.501s5.447,0.5,7.861,1.501c2.414,1.001,4.504,2.425,6.271,4.27
				c1.766,1.846,3.14,4.103,4.121,6.771C263.803,141.24,264.295,144.223,264.295,147.521z M292.618,129.207
				c0.472-0.589,1.06-1.119,1.767-1.59c0.707-0.471,1.688-0.707,2.944-0.707h10.54l-63.242,82.969
				c-0.471,0.628-1.07,1.148-1.796,1.561c-0.727,0.412-1.601,0.618-2.62,0.618h-10.835L292.618,129.207z M253.048,147.521
				c0-2.276-0.216-4.181-0.647-5.712c-0.434-1.531-1.031-2.768-1.797-3.71c-0.766-0.942-1.668-1.619-2.709-2.031
				c-1.04-0.412-2.148-0.618-3.326-0.618s-2.277,0.206-3.298,0.618s-1.904,1.089-2.649,2.031c-0.746,0.942-1.325,2.179-1.737,3.71
				c-0.412,1.531-0.618,3.436-0.618,5.712c0,2.199,0.206,4.034,0.618,5.506c0.412,1.472,0.991,2.66,1.737,3.562
				c0.745,0.903,1.629,1.551,2.649,1.943c1.021,0.393,2.12,0.589,3.298,0.589s2.286-0.196,3.326-0.589
				c1.041-0.392,1.943-1.04,2.709-1.943c0.766-0.903,1.363-2.091,1.797-3.562C252.832,151.554,253.048,149.719,253.048,147.521z
				 M312.345,192.037c0,3.22-0.54,6.124-1.62,8.715c-1.08,2.591-2.521,4.799-4.327,6.625c-1.806,1.825-3.907,3.238-6.301,4.24
				c-2.396,1.001-4.888,1.501-7.479,1.501c-2.826,0-5.438-0.5-7.831-1.501c-2.396-1.001-4.467-2.415-6.213-4.24
				c-1.747-1.826-3.111-4.034-4.092-6.625c-0.982-2.591-1.473-5.496-1.473-8.715c0-3.297,0.49-6.28,1.473-8.95
				c0.98-2.669,2.345-4.926,4.092-6.772c1.746-1.845,3.817-3.268,6.213-4.269c2.394-1.001,5.005-1.501,7.831-1.501
				c2.827,0,5.446,0.5,7.861,1.501c2.414,1.001,4.505,2.424,6.271,4.269c1.768,1.846,3.141,4.103,4.123,6.772
				C311.854,185.757,312.345,188.74,312.345,192.037z M301.156,192.037c0-2.276-0.227-4.181-0.677-5.711
				c-0.452-1.531-1.06-2.768-1.825-3.71s-1.67-1.619-2.709-2.032c-1.041-0.412-2.149-0.618-3.327-0.618s-2.277,0.206-3.298,0.618
				c-1.021,0.413-1.895,1.089-2.62,2.032c-0.727,0.942-1.306,2.179-1.737,3.71c-0.432,1.531-0.647,3.436-0.647,5.711
				c0,2.199,0.216,4.044,0.647,5.535c0.432,1.493,1.011,2.689,1.737,3.592c0.726,0.903,1.599,1.551,2.62,1.943
				c1.021,0.393,2.12,0.589,3.298,0.589s2.286-0.196,3.327-0.589c1.039-0.392,1.943-1.04,2.709-1.943
				c0.766-0.903,1.373-2.1,1.825-3.592C300.93,196.081,301.156,194.236,301.156,192.037z"/>
		</g>
		<g>
			<path fill="#CCCCCC" d="M153.237,266.192c1.483,0,2.81-0.247,3.979-0.742c1.169-0.494,2.158-1.188,2.966-2.082
				c0.808-0.894,1.426-1.978,1.854-3.252c0.428-1.273,0.642-2.699,0.642-4.278v-24.701h7.673v24.701
				c0,2.453-0.395,4.721-1.184,6.803c-0.79,2.083-1.925,3.88-3.409,5.392s-3.28,2.69-5.391,3.537
				c-2.111,0.846-4.488,1.269-7.131,1.269s-5.02-0.423-7.131-1.269c-2.111-0.847-3.903-2.025-5.376-3.537
				c-1.474-1.512-2.605-3.309-3.395-5.392c-0.79-2.082-1.184-4.35-1.184-6.803v-24.701h7.673v24.673
				c0,1.579,0.214,3.005,0.642,4.278c0.428,1.274,1.041,2.363,1.84,3.267s1.783,1.602,2.952,2.096
				C150.427,265.945,151.753,266.192,153.237,266.192z"/>
			<path fill="#CCCCCC" d="M200.272,238.639c-0.209,0.418-0.452,0.713-0.727,0.884c-0.276,0.171-0.604,0.257-0.984,0.257
				s-0.808-0.146-1.283-0.441c-0.476-0.295-1.037-0.623-1.683-0.984s-1.402-0.689-2.268-0.984c-0.866-0.295-1.887-0.442-3.066-0.442
				c-1.065,0-1.992,0.128-2.781,0.386c-0.79,0.256-1.455,0.613-1.997,1.069c-0.542,0.456-0.946,1.003-1.212,1.64
				c-0.267,0.638-0.399,1.336-0.399,2.097c0,0.97,0.271,1.778,0.813,2.425s1.259,1.198,2.153,1.654
				c0.894,0.456,1.911,0.865,3.052,1.227s2.306,0.746,3.494,1.155c1.188,0.409,2.353,0.884,3.494,1.426s2.158,1.227,3.052,2.054
				s1.612,1.84,2.154,3.038s0.813,2.652,0.813,4.364c0,1.863-0.319,3.608-0.956,5.233c-0.637,1.626-1.569,3.043-2.795,4.25
				c-1.227,1.208-2.724,2.159-4.493,2.853c-1.768,0.694-3.793,1.041-6.075,1.041c-1.312,0-2.605-0.128-3.879-0.385
				s-2.496-0.623-3.665-1.098c-1.169-0.476-2.263-1.046-3.28-1.712c-1.018-0.665-1.925-1.407-2.724-2.225l2.225-3.68
				c0.209-0.267,0.461-0.489,0.756-0.67s0.623-0.271,0.984-0.271c0.475,0,0.988,0.195,1.54,0.585
				c0.551,0.39,1.203,0.822,1.954,1.298c0.751,0.476,1.635,0.908,2.653,1.298c1.017,0.39,2.239,0.585,3.665,0.585
				c2.187,0,3.879-0.519,5.077-1.555c1.198-1.036,1.797-2.524,1.797-4.464c0-1.084-0.271-1.969-0.812-2.653
				c-0.542-0.685-1.26-1.259-2.154-1.726c-0.894-0.466-1.911-0.86-3.052-1.184c-1.141-0.323-2.301-0.675-3.48-1.056
				c-1.179-0.38-2.339-0.836-3.48-1.369c-1.141-0.532-2.158-1.227-3.052-2.082s-1.611-1.925-2.153-3.209
				c-0.542-1.283-0.813-2.866-0.813-4.749c0-1.502,0.3-2.967,0.898-4.393c0.599-1.426,1.474-2.69,2.625-3.793
				c1.15-1.103,2.562-1.987,4.235-2.653c1.673-0.666,3.584-0.999,5.733-0.999c2.434,0,4.678,0.381,6.731,1.141
				c2.054,0.761,3.803,1.826,5.249,3.194L200.272,238.639z"/>
			<path fill="#CCCCCC" d="M248.334,251.759c0,3.024-0.504,5.824-1.512,8.4c-1.008,2.577-2.425,4.807-4.25,6.689
				c-1.825,1.882-4.021,3.352-6.589,4.406c-2.567,1.056-5.41,1.583-8.529,1.583s-5.966-0.527-8.542-1.583
				c-2.577-1.055-4.783-2.524-6.618-4.406c-1.835-1.883-3.256-4.112-4.264-6.689c-1.008-2.576-1.512-5.376-1.512-8.4
				c0-3.023,0.503-5.823,1.512-8.399c1.008-2.576,2.429-4.807,4.264-6.689c1.835-1.882,4.041-3.351,6.618-4.407
				c2.576-1.055,5.424-1.583,8.542-1.583s5.961,0.533,8.529,1.598s4.764,2.534,6.589,4.407c1.825,1.873,3.242,4.099,4.25,6.675
				S248.334,248.735,248.334,251.759z M240.462,251.759c0-2.263-0.3-4.292-0.898-6.089c-0.6-1.798-1.46-3.323-2.582-4.578
				c-1.122-1.256-2.486-2.215-4.093-2.881c-1.607-0.666-3.418-0.998-5.434-0.998s-3.832,0.332-5.448,0.998
				c-1.617,0.666-2.991,1.625-4.122,2.881c-1.132,1.255-2.001,2.78-2.61,4.578c-0.609,1.797-0.913,3.826-0.913,6.089
				c0,2.264,0.304,4.293,0.913,6.09c0.608,1.798,1.478,3.319,2.61,4.564c1.131,1.245,2.505,2.201,4.122,2.866
				c1.616,0.666,3.432,0.998,5.448,0.998s3.827-0.332,5.434-0.998c1.606-0.665,2.971-1.621,4.093-2.866s1.982-2.767,2.582-4.564
				C240.162,256.052,240.462,254.022,240.462,251.759z"/>
			<path fill="#CCCCCC" d="M302.016,251.759c0,3.024-0.504,5.801-1.512,8.329c-1.009,2.529-2.425,4.707-4.25,6.532
				c-1.826,1.825-4.022,3.242-6.589,4.25c-2.567,1.008-5.41,1.512-8.529,1.512h-15.745v-41.245h15.745
				c3.119,0,5.962,0.509,8.529,1.526c2.566,1.018,4.763,2.435,6.589,4.25c1.825,1.816,3.241,3.989,4.25,6.519
				C301.512,245.96,302.016,248.735,302.016,251.759z M294.171,251.759c0-2.263-0.304-4.292-0.912-6.089
				c-0.609-1.798-1.474-3.318-2.596-4.564c-1.122-1.245-2.486-2.201-4.094-2.866c-1.606-0.665-3.418-0.999-5.434-0.999h-8.015
				v29.037h8.015c2.016,0,3.827-0.332,5.434-0.998c1.607-0.665,2.972-1.621,4.094-2.866s1.986-2.767,2.596-4.564
				C293.867,256.052,294.171,254.022,294.171,251.759z"/>
			<path fill="#CCCCCC" d="M334.047,231.137v6.104h-18.283v11.438h14.404v5.904h-14.404v11.666h18.283v6.133h-26.014v-41.245
				H334.047z"/>
			<path fill="#CCCCCC" d="M138.376,289.18c0.228,0.028,0.432,0.085,0.613,0.171c0.181,0.086,0.356,0.21,0.528,0.371
				c0.171,0.161,0.361,0.375,0.57,0.642l21.649,27.582c-0.076-0.665-0.128-1.316-0.157-1.954c-0.029-0.637-0.043-1.23-0.043-1.782
				v-25.072h6.76v41.245h-3.965c-0.609,0-1.112-0.095-1.512-0.285c-0.399-0.189-0.79-0.532-1.169-1.027l-21.564-27.468
				c0.057,0.608,0.1,1.212,0.128,1.812c0.028,0.599,0.042,1.146,0.042,1.64v25.329h-6.76v-41.245h4.021
				C137.862,289.137,138.148,289.151,138.376,289.18z"/>
			<path fill="#CCCCCC" d="M192.514,279.296l-8.443,6.161c-0.209,0.152-0.404,0.276-0.584,0.371
				c-0.181,0.095-0.361,0.171-0.542,0.228c-0.181,0.058-0.371,0.096-0.57,0.114c-0.2,0.02-0.433,0.029-0.699,0.029h-5.533
				l5.59-5.763c0.229-0.228,0.442-0.418,0.642-0.57c0.2-0.151,0.404-0.271,0.613-0.356c0.209-0.085,0.446-0.143,0.713-0.171
				c0.266-0.028,0.589-0.043,0.97-0.043H192.514z M185.269,330.382h-7.701v-41.245h7.701V330.382z"/>
			<path fill="#CCCCCC" d="M234.101,309.759c0,1.845-0.19,3.608-0.57,5.292c-0.381,1.683-0.927,3.256-1.641,4.721
				c-0.713,1.464-1.583,2.81-2.609,4.036c-1.027,1.226-2.196,2.306-3.508,3.237l10.468,11.409h-6.333
				c-0.913,0-1.735-0.124-2.467-0.371c-0.732-0.247-1.402-0.703-2.011-1.369l-6.047-6.674c-0.97,0.266-1.963,0.465-2.98,0.599
				c-1.018,0.133-2.078,0.199-3.181,0.199c-3.119,0-5.966-0.527-8.542-1.583c-2.577-1.055-4.783-2.524-6.618-4.406
				c-1.835-1.883-3.256-4.112-4.264-6.689c-1.008-2.576-1.512-5.376-1.512-8.4c0-3.023,0.503-5.823,1.512-8.399
				c1.008-2.577,2.429-4.807,4.264-6.689c1.835-1.882,4.041-3.352,6.618-4.406c2.576-1.056,5.424-1.583,8.542-1.583
				s5.962,0.532,8.529,1.597c2.567,1.065,4.764,2.534,6.589,4.407c1.826,1.873,3.242,4.098,4.25,6.675
				C233.597,303.936,234.101,306.735,234.101,309.759z M226.228,309.759c0-2.263-0.299-4.292-0.898-6.089
				c-0.599-1.798-1.459-3.323-2.581-4.578c-1.123-1.256-2.487-2.216-4.093-2.881c-1.607-0.666-3.418-0.999-5.434-0.999
				s-3.832,0.333-5.448,0.999c-1.617,0.665-2.991,1.625-4.122,2.881c-1.132,1.255-2.001,2.78-2.61,4.578
				c-0.609,1.797-0.913,3.826-0.913,6.089c0,2.264,0.304,4.293,0.913,6.09c0.608,1.798,1.478,3.319,2.61,4.564
				c1.131,1.245,2.505,2.201,4.122,2.866c1.616,0.666,3.432,0.998,5.448,0.998s3.827-0.332,5.434-0.998
				c1.606-0.665,2.971-1.621,4.093-2.866c1.122-1.245,1.982-2.767,2.581-4.564C225.929,314.052,226.228,312.022,226.228,309.759z"/>
			<path fill="#CCCCCC" d="M256.749,324.192c1.482,0,2.81-0.247,3.979-0.742c1.17-0.494,2.158-1.188,2.967-2.082
				c0.808-0.894,1.426-1.978,1.854-3.252c0.428-1.273,0.642-2.699,0.642-4.278v-24.701h7.673v24.701
				c0,2.453-0.395,4.721-1.184,6.803c-0.789,2.083-1.925,3.88-3.408,5.392s-3.28,2.69-5.391,3.537
				c-2.111,0.846-4.488,1.269-7.131,1.269c-2.644,0-5.021-0.423-7.131-1.269c-2.111-0.847-3.903-2.025-5.377-3.537
				s-2.605-3.309-3.395-5.392c-0.789-2.082-1.184-4.35-1.184-6.803v-24.701h7.673v24.673c0,1.579,0.214,3.005,0.642,4.278
				c0.428,1.274,1.041,2.363,1.84,3.267s1.782,1.602,2.952,2.096C253.939,323.945,255.266,324.192,256.749,324.192z"/>
			<path fill="#CCCCCC" d="M307.691,289.137v6.104h-18.283v11.438h14.404v5.904h-14.404v11.666h18.283v6.133h-26.014v-41.245
				H307.691z"/>
			<path fill="#CCCCCC" d="M322.01,324.05h16.516v6.332h-24.188v-41.245h7.673V324.05z"/>
		</g>
	</g>
</g>
<g id="PLOMO">
	<g>
		<polygon fill="none" stroke="#1DB1D3" stroke-width="7.0034" stroke-miterlimit="10" points="235.59,458.626 74.32,394.493 
			7.26,234.828 74.225,74.437 233.889,7.374 394.68,72.105 461.74,231.771 395.256,391.565 		"/>
		<g>
			<path fill="#1DB1D3" d="M137.607,169.425l46.637-24.319v10.364c0,0.786-0.197,1.501-0.589,2.149
				c-0.394,0.648-1.041,1.207-1.943,1.678l-21.375,10.953c-0.904,0.471-1.855,0.874-2.856,1.207
				c-1.001,0.334-2.071,0.639-3.209,0.913c1.138,0.275,2.208,0.58,3.209,0.913c1.001,0.334,1.952,0.736,2.856,1.207l21.375,11.011
				c0.902,0.471,1.55,1.031,1.943,1.678c0.392,0.648,0.589,1.365,0.589,2.149v10.364l-46.637-24.378V169.425z"/>
			<path fill="#1DB1D3" d="M228.936,178.082c-2.944,0-5.829-0.51-8.656-1.531c-2.826-1.021-5.349-2.562-7.566-4.623
				s-3.995-4.612-5.329-7.655c-1.335-3.042-2.002-6.604-2.002-10.688c0-3.807,0.707-7.38,2.12-10.717
				c1.413-3.336,3.395-6.261,5.947-8.774c2.551-2.512,5.613-4.495,9.186-5.947c3.572-1.452,7.518-2.179,11.837-2.179
				c4.356,0,8.272,0.687,11.747,2.061c3.473,1.375,6.438,3.297,8.891,5.771s4.338,5.438,5.652,8.892
				c1.316,3.455,1.973,7.243,1.973,11.365c0,2.63-0.227,5.123-0.676,7.479c-0.453,2.355-1.1,4.622-1.943,6.801
				c-0.846,2.179-1.855,4.299-3.033,6.36s-2.494,4.132-3.945,6.212l-19.49,27.793c-0.668,0.942-1.659,1.737-2.974,2.385
				c-1.315,0.648-2.817,0.972-4.505,0.972h-13.366l26.438-33.034c0.666-0.825,1.295-1.629,1.885-2.415
				c0.588-0.785,1.156-1.569,1.707-2.355c-1.963,1.257-4.121,2.208-6.477,2.856C234,177.758,231.526,178.082,228.936,178.082z
				 M248.779,152.584c0-2.316-0.354-4.387-1.061-6.212c-0.705-1.825-1.707-3.366-3.002-4.623c-1.297-1.256-2.838-2.217-4.623-2.885
				c-1.787-0.667-3.738-1.001-5.858-1.001c-2.199,0-4.181,0.363-5.947,1.089c-1.767,0.727-3.269,1.737-4.505,3.033
				s-2.188,2.836-2.855,4.623c-0.668,1.787-1.001,3.739-1.001,5.859c0,4.75,1.226,8.372,3.68,10.864
				c2.453,2.493,5.938,3.739,10.452,3.739c2.356,0,4.445-0.373,6.271-1.119c1.824-0.745,3.365-1.767,4.621-3.062
				s2.209-2.826,2.857-4.593C248.455,156.53,248.779,154.626,248.779,152.584z"/>
			<path fill="#1DB1D3" d="M331.393,169.484c0,7.419-0.795,13.867-2.385,19.344c-1.59,5.476-3.789,10.001-6.594,13.573
				c-2.809,3.573-6.125,6.233-9.953,7.979c-3.826,1.746-7.959,2.621-12.395,2.621c-4.438,0-8.549-0.875-12.336-2.621
				c-3.789-1.746-7.076-4.406-9.863-7.979c-2.789-3.572-4.967-8.097-6.537-13.573c-1.57-5.477-2.355-11.924-2.355-19.344
				c0-7.458,0.785-13.916,2.355-19.373c1.57-5.456,3.748-9.971,6.537-13.543c2.787-3.572,6.074-6.232,9.863-7.979
				c3.787-1.746,7.898-2.62,12.336-2.62c4.436,0,8.568,0.874,12.395,2.62c3.828,1.747,7.145,4.407,9.953,7.979
				c2.805,3.573,5.004,8.087,6.594,13.543C330.598,155.568,331.393,162.026,331.393,169.484z M316.377,169.484
				c0-6.163-0.451-11.266-1.354-15.31c-0.904-4.043-2.111-7.262-3.621-9.657c-1.512-2.394-3.25-4.072-5.213-5.035
				c-1.963-0.961-4.004-1.442-6.123-1.442c-2.082,0-4.092,0.481-6.035,1.442c-1.943,0.962-3.662,2.641-5.152,5.035
				c-1.492,2.395-2.68,5.614-3.562,9.657c-0.885,4.044-1.326,9.147-1.326,15.31c0,6.164,0.441,11.267,1.326,15.31
				c0.883,4.044,2.07,7.263,3.562,9.657c1.49,2.395,3.209,4.073,5.152,5.035c1.943,0.962,3.953,1.442,6.035,1.442
				c2.119,0,4.16-0.48,6.123-1.442c1.963-0.961,3.701-2.64,5.213-5.035c1.51-2.394,2.717-5.613,3.621-9.657
				C315.926,180.751,316.377,175.648,316.377,169.484z"/>
		</g>
		<g>
			<path fill="#CCCCCC" d="M140.287,257.863v14.519h-7.673v-41.245h13.435c2.757,0,5.144,0.324,7.159,0.97
				c2.016,0.647,3.68,1.55,4.992,2.71c1.312,1.16,2.281,2.549,2.909,4.164c0.628,1.617,0.941,3.385,0.941,5.306
				c0,1.997-0.333,3.827-0.998,5.491c-0.666,1.664-1.665,3.095-2.995,4.292c-1.331,1.198-2.995,2.13-4.992,2.796
				c-1.996,0.666-4.335,0.998-7.017,0.998H140.287z M140.287,251.873h5.762c1.407,0,2.634-0.175,3.68-0.527
				c1.046-0.352,1.911-0.855,2.596-1.512s1.198-1.455,1.54-2.396c0.343-0.94,0.514-1.991,0.514-3.151
				c0-1.103-0.171-2.101-0.514-2.995c-0.342-0.894-0.855-1.654-1.54-2.281c-0.685-0.628-1.55-1.107-2.596-1.441
				c-1.046-0.332-2.272-0.498-3.68-0.498h-5.762V251.873z"/>
			<path fill="#CCCCCC" d="M175.941,257.863v14.519h-7.673v-41.245h13.435c2.757,0,5.144,0.324,7.159,0.97
				c2.016,0.647,3.68,1.55,4.992,2.71c1.312,1.16,2.281,2.549,2.909,4.164c0.628,1.617,0.941,3.385,0.941,5.306
				c0,1.997-0.333,3.827-0.998,5.491c-0.666,1.664-1.665,3.095-2.995,4.292c-1.331,1.198-2.995,2.13-4.992,2.796
				c-1.996,0.666-4.335,0.998-7.017,0.998H175.941z M175.941,251.873h5.762c1.407,0,2.634-0.175,3.68-0.527
				c1.046-0.352,1.911-0.855,2.596-1.512s1.198-1.455,1.54-2.396c0.343-0.94,0.514-1.991,0.514-3.151
				c0-1.103-0.171-2.101-0.514-2.995c-0.342-0.894-0.855-1.654-1.54-2.281c-0.685-0.628-1.55-1.107-2.596-1.441
				c-1.046-0.332-2.272-0.498-3.68-0.498h-5.762V251.873z"/>
			<path fill="#CCCCCC" d="M225.273,257.164c0.275,0.656,0.546,1.317,0.812,1.982c0.267-0.685,0.542-1.359,0.827-2.024
				c0.285-0.666,0.59-1.303,0.913-1.911l12.208-22.848c0.152-0.285,0.309-0.514,0.471-0.685c0.162-0.171,0.342-0.294,0.543-0.371
				c0.199-0.076,0.422-0.123,0.67-0.143c0.246-0.019,0.541-0.028,0.885-0.028h5.789v41.245h-6.76v-26.641
				c0-0.495,0.014-1.037,0.043-1.626c0.027-0.59,0.07-1.188,0.129-1.797l-12.466,23.389c-0.285,0.533-0.656,0.946-1.112,1.241
				s-0.989,0.442-1.598,0.442h-1.055c-0.609,0-1.142-0.147-1.598-0.442s-0.827-0.708-1.112-1.241l-12.636-23.475
				c0.075,0.628,0.128,1.241,0.156,1.84s0.043,1.155,0.043,1.669v26.641h-6.76v-41.245h5.79c0.342,0,0.637,0.01,0.884,0.028
				c0.247,0.02,0.471,0.067,0.671,0.143c0.199,0.077,0.385,0.2,0.556,0.371c0.172,0.171,0.333,0.399,0.485,0.685l12.322,22.904
				C224.698,255.877,224.997,256.509,225.273,257.164z"/>
			<path fill="#CCCCCC" d="M304.354,251.759c0,3.024-0.504,5.801-1.512,8.329c-1.009,2.529-2.425,4.707-4.25,6.532
				c-1.826,1.825-4.022,3.242-6.589,4.25c-2.567,1.008-5.41,1.512-8.529,1.512h-15.745v-41.245h15.745
				c3.119,0,5.962,0.509,8.529,1.526c2.566,1.018,4.763,2.435,6.589,4.25c1.825,1.816,3.241,3.989,4.25,6.519
				C303.851,245.96,304.354,248.735,304.354,251.759z M296.51,251.759c0-2.263-0.304-4.292-0.912-6.089
				c-0.609-1.798-1.474-3.318-2.596-4.564c-1.122-1.245-2.486-2.201-4.094-2.866c-1.606-0.665-3.418-0.999-5.434-0.999h-8.015
				v29.037h8.015c2.016,0,3.827-0.332,5.434-0.998c1.607-0.665,2.972-1.621,4.094-2.866s1.986-2.767,2.596-4.564
				C296.206,256.052,296.51,254.022,296.51,251.759z"/>
			<path fill="#CCCCCC" d="M336.386,231.137v6.104h-18.283v11.438h14.404v5.904h-14.404v11.666h18.283v6.133h-26.014v-41.245
				H336.386z"/>
			<path fill="#CCCCCC" d="M142.055,315.863v14.519h-7.673v-41.245h13.435c2.757,0,5.144,0.323,7.159,0.97s3.68,1.55,4.992,2.71
				c1.312,1.16,2.281,2.548,2.909,4.164c0.628,1.617,0.941,3.385,0.941,5.306c0,1.997-0.333,3.827-0.998,5.491
				c-0.666,1.664-1.665,3.095-2.995,4.292c-1.331,1.198-2.995,2.13-4.992,2.796c-1.996,0.666-4.335,0.998-7.017,0.998H142.055z
				 M142.055,309.873h5.762c1.407,0,2.634-0.175,3.68-0.527c1.046-0.352,1.911-0.855,2.596-1.512s1.198-1.455,1.54-2.396
				c0.343-0.94,0.514-1.991,0.514-3.151c0-1.103-0.171-2.101-0.514-2.995c-0.342-0.894-0.855-1.654-1.54-2.282
				c-0.685-0.627-1.55-1.107-2.596-1.44c-1.046-0.332-2.272-0.499-3.68-0.499h-5.762V309.873z"/>
			<path fill="#CCCCCC" d="M177.452,324.05h16.516v6.332h-24.188v-41.245h7.673V324.05z"/>
			<path fill="#CCCCCC" d="M236.554,309.759c0,3.024-0.504,5.824-1.512,8.4c-1.008,2.577-2.425,4.807-4.25,6.689
				c-1.825,1.882-4.022,3.352-6.589,4.406c-2.567,1.056-5.41,1.583-8.529,1.583c-3.118,0-5.966-0.527-8.542-1.583
				c-2.577-1.055-4.783-2.524-6.618-4.406c-1.835-1.883-3.256-4.112-4.264-6.689c-1.009-2.576-1.512-5.376-1.512-8.4
				c0-3.023,0.503-5.823,1.512-8.399c1.008-2.577,2.429-4.807,4.264-6.689c1.835-1.882,4.041-3.352,6.618-4.406
				c2.576-1.056,5.424-1.583,8.542-1.583c3.119,0,5.962,0.532,8.529,1.597c2.566,1.065,4.764,2.534,6.589,4.407
				s3.242,4.098,4.25,6.675C236.05,303.936,236.554,306.735,236.554,309.759z M228.681,309.759c0-2.263-0.299-4.292-0.898-6.089
				c-0.599-1.798-1.459-3.323-2.581-4.578c-1.122-1.256-2.486-2.216-4.093-2.881c-1.607-0.666-3.419-0.999-5.435-0.999
				s-3.831,0.333-5.447,0.999c-1.617,0.665-2.991,1.625-4.122,2.881c-1.132,1.255-2.001,2.78-2.609,4.578
				c-0.609,1.797-0.913,3.826-0.913,6.089c0,2.264,0.304,4.293,0.913,6.09c0.608,1.798,1.478,3.319,2.609,4.564
				c1.131,1.245,2.505,2.201,4.122,2.866c1.616,0.666,3.432,0.998,5.447,0.998s3.827-0.332,5.435-0.998
				c1.606-0.665,2.971-1.621,4.093-2.866s1.982-2.767,2.581-4.564C228.382,314.052,228.681,312.022,228.681,309.759z"/>
			<path fill="#CCCCCC" d="M264.208,315.164c0.275,0.656,0.546,1.317,0.812,1.982c0.266-0.685,0.542-1.359,0.827-2.024
				c0.285-0.666,0.589-1.303,0.913-1.911l12.208-22.848c0.151-0.285,0.309-0.514,0.471-0.685c0.161-0.171,0.342-0.295,0.542-0.371
				c0.199-0.075,0.423-0.123,0.67-0.143c0.247-0.019,0.542-0.028,0.885-0.028h5.79v41.245h-6.761v-26.641
				c0-0.495,0.015-1.037,0.043-1.626c0.028-0.59,0.071-1.188,0.129-1.797l-12.465,23.389c-0.285,0.533-0.656,0.946-1.112,1.241
				c-0.457,0.295-0.989,0.442-1.598,0.442h-1.056c-0.608,0-1.141-0.147-1.597-0.442c-0.457-0.295-0.827-0.708-1.113-1.241
				l-12.636-23.475c0.076,0.628,0.129,1.241,0.157,1.84s0.043,1.155,0.043,1.669v26.641h-6.761v-41.245h5.791
				c0.342,0,0.637,0.01,0.884,0.028c0.247,0.02,0.471,0.067,0.67,0.143c0.2,0.076,0.386,0.2,0.557,0.371s0.333,0.399,0.485,0.685
				l12.322,22.904C263.632,313.877,263.932,314.509,264.208,315.164z"/>
			<path fill="#CCCCCC" d="M335.217,309.759c0,3.024-0.504,5.824-1.512,8.4c-1.008,2.577-2.425,4.807-4.25,6.689
				c-1.825,1.882-4.021,3.352-6.589,4.406c-2.567,1.056-5.41,1.583-8.528,1.583c-3.119,0-5.967-0.527-8.543-1.583
				c-2.577-1.055-4.782-2.524-6.617-4.406c-1.836-1.883-3.257-4.112-4.265-6.689c-1.008-2.576-1.512-5.376-1.512-8.4
				c0-3.023,0.504-5.823,1.512-8.399c1.008-2.577,2.429-4.807,4.265-6.689c1.835-1.882,4.04-3.352,6.617-4.406
				c2.576-1.056,5.424-1.583,8.543-1.583c3.118,0,5.961,0.532,8.528,1.597c2.567,1.065,4.764,2.534,6.589,4.407
				s3.242,4.098,4.25,6.675C334.713,303.936,335.217,306.735,335.217,309.759z M327.345,309.759c0-2.263-0.3-4.292-0.898-6.089
				c-0.6-1.798-1.46-3.323-2.582-4.578c-1.122-1.256-2.486-2.216-4.093-2.881c-1.607-0.666-3.419-0.999-5.434-0.999
				c-2.016,0-3.832,0.333-5.448,0.999c-1.616,0.665-2.99,1.625-4.122,2.881c-1.131,1.255-2.001,2.78-2.609,4.578
				c-0.609,1.797-0.913,3.826-0.913,6.089c0,2.264,0.304,4.293,0.913,6.09c0.608,1.798,1.479,3.319,2.609,4.564
				c1.132,1.245,2.506,2.201,4.122,2.866c1.616,0.666,3.433,0.998,5.448,0.998c2.015,0,3.826-0.332,5.434-0.998
				c1.606-0.665,2.971-1.621,4.093-2.866s1.982-2.767,2.582-4.564C327.045,314.052,327.345,312.022,327.345,309.759z"/>
		</g>
	</g>
</g>
<g id="REFE" display="none">
</g>
</svg>
