<?xml version="1.0" encoding="utf-8"?>
<!-- Generator: Adobe Illustrator 15.1.0, SVG Export Plug-In . SVG Version: 6.00 Build 0)  -->
<!DOCTYPE svg PUBLIC "-//W3C//DTD SVG 1.1//EN" "http://www.w3.org/Graphics/SVG/1.1/DTD/svg11.dtd">
<svg version="1.1" id="Layer_1" xmlns="http://www.w3.org/2000/svg" xmlns:xlink="http://www.w3.org/1999/xlink" x="0px" y="0px"
	 width="500px" height="500px" viewBox="0 0 500 500" enable-background="new 0 0 500 500" xml:space="preserve">
<g id="Lamp">
	<g>
		<path fill="#FFFFFF" d="M242.685,2.837c1.912,0,3.821,0,5.732,0c17.925,3.257,12.497,30.727,12.497,53.655
			c0,15.744,0.421,31.381-0.52,43.754c-9.897-0.346-21.184,0.696-30.211-0.519c0-12.745,0-28.041,0-43.757
			C230.185,35.535,224.808,4.437,242.685,2.837z"/>
		<path fill="#FFFFFF" d="M190.594,113.79c-8.601,5.116-17.402,10.029-26.044,15.104c-11.45-17.264-22.917-39.063-34.38-58.858
			c-4.134-7.144-12.922-15.694-10.936-26.046c1.433-7.467,13.595-15.732,23.436-10.417c5.113,2.761,9.544,13.257,13.027,19.271
			C167.019,72.397,179.813,94.423,190.594,113.79z"/>
		<path fill="#FFFFFF" d="M326.552,128.894c-9.665-4.401-17.836-10.296-27.095-15.104c10.017-17.647,23.617-40.843,34.903-60.423
			c4.57-7.929,8.683-19.941,17.711-21.359c10.081-1.581,19.129,6.654,19.272,15.107c0.126,7.501-6.938,15.284-10.418,21.354
			C349.085,89.138,338.081,108.861,326.552,128.894z"/>
		<path fill="#FFFFFF" d="M132.779,156.502c-4.537,9.532-10.394,17.733-15.107,27.089c-18.696-9.906-39.19-22.793-58.339-33.86
			c-5.948-3.439-15.34-6.787-18.752-11.463c-7.899-10.812,2.219-26.145,14.588-25.001c6.43,0.598,13.78,6.97,19.792,10.417
			C94.592,134.954,113.42,145.814,132.779,156.502z"/>
		<path fill="#FFFFFF" d="M372.386,183.591c-4.356-9.187-9.888-17.204-14.584-26.047c15.296-10.002,37.63-22.929,55.738-33.337
			c6.475-3.72,14.642-10.183,21.353-10.939c10.985-1.227,20.623,10.729,16.669,21.875c-2.156,6.087-12.32,9.887-18.75,13.546
			C412.307,160.353,393.012,172.877,372.386,183.591z"/>
		<path fill="#FFFFFF" d="M240.082,131.5c34.568-2.227,63.778,12.975,83.343,33.334c17.813,18.546,33.061,46.828,29.167,85.428
			c-3.4,33.723-21.421,54.029-33.856,82.295c-5.094,11.586-10.492,26.267-14.584,43.238c-3.747,15.561-4.323,37.189-15.104,42.713
			c-8.272,4.236-31.72,2.084-44.276,2.084c-13.005,0-37.544,2.234-45.315-2.604c-9.405-5.846-10.548-28.229-14.065-42.713
			c-3.792-15.604-9.308-31.072-14.062-42.192c-11.819-27.604-28.91-47.993-33.341-79.179
			c-7.606-53.575,22.346-92.378,56.777-110.424C207.511,136.797,222.837,132.61,240.082,131.5z"/>
		<path fill="#FFFFFF" d="M249.953,497.161c-2.772,0-5.553,0-8.333,0c-11.673-2.903-23.237-5.929-24.481-19.269
			c19.103,0.346,39.589-0.701,57.819,0.52C272.772,490.812,262.08,494.708,249.953,497.161z"/>
		
			<line fill="none" stroke="#FFFFFF" stroke-width="12.7766" stroke-linecap="round" stroke-miterlimit="10" x1="208.14" y1="433.918" x2="283.956" y2="433.918"/>
		
			<line fill="none" stroke="#FFFFFF" stroke-width="12.7766" stroke-linecap="round" stroke-miterlimit="10" x1="208.14" y1="450.581" x2="283.956" y2="450.581"/>
		
			<line fill="none" stroke="#FFFFFF" stroke-width="12.7766" stroke-linecap="round" stroke-miterlimit="10" x1="208.14" y1="466.729" x2="283.956" y2="466.729"/>
	</g>
</g>
<g id="_x32_D" display="none">
	<g display="inline">
		<g>
			<path d="M155.128,139.99c9.231,0,17.682,1.364,25.348,4.085c7.662,2.727,14.217,6.58,19.666,11.564
				c5.447,4.988,9.693,10.99,12.741,18.006c3.048,7.019,4.57,14.821,4.57,23.408c0,7.386-1.086,14.219-3.255,20.495
				c-2.169,6.282-5.078,12.282-8.724,18.006c-3.65,5.728-7.919,11.268-12.813,16.621c-4.894,5.355-10.018,10.804-15.372,16.343
				l-45.151,46.121c4.433-1.294,8.771-2.285,13.02-2.979c4.247-0.689,8.31-1.037,12.189-1.037h51.381
				c3.692,0,6.625,1.037,8.796,3.117c2.169,2.073,3.256,4.823,3.256,8.237v20.498H83.386V331.12c0-2.308,0.484-4.709,1.453-7.201
				c0.97-2.494,2.517-4.801,4.642-6.926l60.802-60.938c5.077-5.172,9.625-10.112,13.641-14.822c4.018-4.709,7.389-9.37,10.11-13.987
				c2.724-4.617,4.8-9.302,6.233-14.059c1.432-4.754,2.146-9.766,2.146-15.026c0-4.8-0.689-9.025-2.076-12.672
				c-1.385-3.648-3.371-6.72-5.956-9.213c-2.587-2.491-5.656-4.361-9.211-5.608c-3.553-1.246-7.546-1.87-11.979-1.87
				c-8.219,0-14.982,2.078-20.29,6.232c-5.312,4.155-9.026,9.744-11.151,16.759c-1.017,3.509-2.538,6.024-4.567,7.549
				c-2.032,1.523-4.62,2.283-7.758,2.283c-1.385,0-2.908-0.135-4.57-0.413l-18.003-3.186c1.385-9.603,4.06-18.027,8.031-25.277
				c3.97-7.246,8.935-13.295,14.89-18.143c5.955-4.85,12.788-8.495,20.499-10.94C137.978,141.215,146.264,139.99,155.128,139.99z"/>
			<path d="M416.614,242.341c0,14.683-2.449,28.163-7.342,40.442c-4.895,12.281-11.771,22.852-20.636,31.717
				c-8.866,8.863-19.528,15.744-31.994,20.637c-12.464,4.896-26.271,7.34-41.41,7.34H238.78v-200.27h76.452
				c15.141,0,28.946,2.47,41.41,7.407c12.466,4.941,23.128,11.822,31.994,20.638c8.863,8.817,15.741,19.368,20.636,31.646
				C414.165,214.181,416.614,227.66,416.614,242.341z M378.525,242.341c0-10.987-1.478-20.842-4.433-29.568
				c-2.954-8.726-7.155-16.112-12.604-22.161c-5.449-6.046-12.073-10.686-19.873-13.918c-7.804-3.232-16.6-4.849-26.385-4.849
				h-38.919V312.84h38.919c9.785,0,18.581-1.615,26.385-4.848c7.8-3.232,14.424-7.871,19.873-13.92
				c5.447-6.047,9.648-13.434,12.604-22.16C377.049,263.188,378.525,253.33,378.525,242.341z"/>
		</g>
		
			<line fill="none" stroke="#000000" stroke-width="8.6732" stroke-miterlimit="10" x1="263.262" y1="123.745" x2="302.323" y2="0.699"/>
		
			<line fill="none" stroke="#000000" stroke-width="8.6732" stroke-miterlimit="10" x1="170.929" y1="499.301" x2="209.99" y2="376.252"/>
	</g>
</g>
<g id="_x33_D" display="none">
	<g display="inline">
		<g>
			<path d="M163.188,137.752c9.333,0,17.759,1.33,25.273,3.991c7.514,2.661,13.933,6.349,19.253,11.062
				c5.321,4.715,9.403,10.246,12.252,16.592c2.848,6.349,4.271,13.21,4.271,20.583c0,6.441-0.724,12.112-2.17,17.013
				c-1.448,4.901-3.549,9.171-6.301,12.812c-2.754,3.641-6.115,6.721-10.082,9.242c-3.97,2.52-8.472,4.621-13.513,6.301
				c12.135,3.829,21.189,9.662,27.165,17.503c5.974,7.84,8.961,17.688,8.961,29.545c0,10.08-1.868,18.996-5.601,26.744
				c-3.734,7.747-8.775,14.26-15.122,19.532c-6.35,5.272-13.701,9.267-22.054,11.972c-8.355,2.707-17.201,4.061-26.534,4.061
				c-10.176,0-19.043-1.168-26.604-3.5c-7.561-2.332-14.142-5.787-19.742-10.361c-5.602-4.572-10.361-10.174-14.282-16.803
				c-3.92-6.627-7.281-14.283-10.082-22.965l15.262-6.301c2.612-1.119,5.273-1.681,7.981-1.681c2.426,0,4.597,0.515,6.511,1.541
				c1.912,1.027,3.382,2.521,4.411,4.48c1.68,3.268,3.521,6.487,5.531,9.661c2.006,3.175,4.411,5.998,7.211,8.472
				c2.8,2.476,6.091,4.479,9.872,6.021c3.779,1.539,8.282,2.31,13.512,2.31c5.881,0,11.014-0.955,15.403-2.869
				c4.387-1.912,8.051-4.41,10.991-7.492c2.94-3.079,5.134-6.51,6.581-10.291c1.446-3.78,2.17-7.584,2.17-11.411
				c0-4.853-0.514-9.265-1.541-13.232c-1.027-3.967-3.174-7.352-6.44-10.15c-3.27-2.801-7.959-4.994-14.072-6.582
				c-6.115-1.586-14.306-2.381-24.574-2.381v-24.783c8.493,0,15.542-0.746,21.144-2.24c5.601-1.492,10.058-3.571,13.372-6.231
				c3.312-2.661,5.623-5.857,6.931-9.592c1.306-3.732,1.96-7.841,1.96-12.322c0-9.613-2.614-16.873-7.841-21.773
				c-5.229-4.901-12.37-7.351-21.423-7.351c-8.215,0-15.031,2.168-20.443,6.504c-5.415,4.336-9.195,9.906-11.342,16.71
				c-1.12,3.544-2.66,6.087-4.621,7.625c-1.961,1.538-4.529,2.306-7.701,2.306c-1.495,0-3.081-0.138-4.761-0.413l-18.203-3.17
				c1.4-9.709,4.106-18.231,8.122-25.561c4.012-7.33,9.031-13.447,15.052-18.35c6.021-4.901,12.928-8.589,20.724-11.064
				C145.848,138.991,154.227,137.752,163.188,137.752z"/>
			<path d="M424.326,241.229c0,14.843-2.475,28.472-7.422,40.886c-4.947,12.416-11.9,23.104-20.863,32.066
				c-8.961,8.961-19.742,15.916-32.344,20.862c-12.604,4.947-26.559,7.42-41.867,7.42h-77.292V139.993h77.292
				c15.31,0,29.265,2.499,41.867,7.491c12.602,4.995,23.383,11.95,32.344,20.864c8.963,8.916,15.916,19.581,20.863,31.995
				C421.852,212.759,424.326,226.387,424.326,241.229z M385.82,241.229c0-11.107-1.494-21.073-4.48-29.895
				c-2.987-8.822-7.235-16.289-12.741-22.404c-5.511-6.113-12.207-10.804-20.095-14.072c-7.889-3.267-16.78-4.901-26.674-4.901
				h-39.346V312.5h39.346c9.894,0,18.785-1.631,26.674-4.9c7.888-3.266,14.584-7.957,20.095-14.072
				c5.506-6.112,9.754-13.581,12.741-22.403C384.326,262.303,385.82,252.34,385.82,241.229z"/>
		</g>
		
			<line fill="none" stroke="#000000" stroke-width="9.1248" stroke-miterlimit="10" x1="323.439" y1="110.406" x2="407.053" y2="3.379"/>
		
			<line fill="none" stroke="#000000" stroke-width="9.1248" stroke-miterlimit="10" x1="91.215" y1="496.621" x2="174.834" y2="389.592"/>
		
			<line fill="none" stroke="#000000" stroke-width="9.1248" stroke-miterlimit="10" x1="172.822" y1="111.077" x2="88.377" y2="4.7"/>
		
			<line fill="none" stroke="#000000" stroke-width="9.1248" stroke-miterlimit="10" x1="409.893" y1="495.297" x2="325.451" y2="388.92"/>
	</g>
</g>
<g id="Ok" display="none">
	
		<polyline display="inline" fill="none" stroke="#000000" stroke-width="91.3364" stroke-linecap="round" stroke-miterlimit="10" points="
		51.017,279.598 194.548,398.412 448.983,101.586 	"/>
</g>
<g id="Layer_5" display="none">
	<g display="inline">
		<path d="M428.872,146.925c-3.439,3.848-9.459,4.083-13.462,0.517l-71.381-63.559c-3.999-3.563-4.462-9.578-1.035-13.426
			l60.625-68.085c-6.12-1.106-12.424-1.693-18.863-1.693c-58.053,0-105.11,47.066-105.11,105.114
			c0,58.052,47.059,105.119,105.11,105.119c58.057,0,105.114-47.066,105.114-105.119c0-8.336-0.972-16.441-2.812-24.215
			L428.872,146.925z"/>
		<path d="M71.14,353.08c3.424-3.857,9.455-4.088,13.457-0.518l71.383,63.555c3.998,3.57,4.461,9.578,1.033,13.434l-60.624,68.082
			c6.115,1.111,12.417,1.689,18.855,1.689c58.061,0,105.122-47.06,105.122-105.115c0-58.047-47.062-105.105-105.122-105.105
			c-58.048,0-105.115,47.06-105.115,105.105c0,8.338,0.979,16.451,2.812,24.225L71.14,353.08z"/>
		<path d="M133.252,301.154c-3.077,3.285-2.518,8.813,1.25,12.332l61.353,57.477c3.768,3.525,9.312,3.719,12.39,0.426
			l154.448-164.896c3.078-3.292,2.526-8.811-1.246-12.338l-61.359-57.463c-3.76-3.528-9.312-3.725-12.394-0.439L133.252,301.154z"/>
	</g>
</g>
</svg>
