<?xml version="1.0" encoding="utf-8"?>
<!-- Generator: Adobe Illustrator 16.0.0, SVG Export Plug-In . SVG Version: 6.00 Build 0)  -->
<!DOCTYPE svg PUBLIC "-//W3C//DTD SVG 1.1//EN" "http://www.w3.org/Graphics/SVG/1.1/DTD/svg11.dtd">
<svg version="1.1" id="Layer_1" xmlns="http://www.w3.org/2000/svg" xmlns:xlink="http://www.w3.org/1999/xlink" x="0px" y="0px"
	 width="110.749px" height="84.474px" viewBox="19.855 43.185 110.749 84.474"
	 enable-background="new 19.855 43.185 110.749 84.474" xml:space="preserve">
<g>
	<g>
		<path fill="#333333" d="M84.338,114.963c0.022,2.503,0.36,8.009-1.012,10.047c-0.503,0.75-1.703,1.47-2.432,0.43
			C79.188,123.003,82.186,116.041,84.338,114.963L84.338,114.963z M82.312,99.72c1.344-0.46,1.941,0.809,2.112,1.985
			c0.227,1.551-0.43,2.222-0.495,3.669c-0.256,5.635-3.63,8.729-4.27,4.289C79.264,106.921,79.568,100.658,82.312,99.72
			L82.312,99.72z M69.531,99.979c1.974-0.469,2.311,2.204,2.213,2.994c-0.125,1.018-0.419-0.438-0.686,2.52
			c-0.136,1.511-0.353,4.021-1.065,5.356c-0.557,1.042-2.513,2.768-3.07-0.892C66.513,107.265,66.757,100.639,69.531,99.979
			L69.531,99.979z M60.65,91.613c-0.639-0.515-1.921-0.822-2.957-0.806c-0.33,1.515-0.231,3.278-0.334,4.917
			c-0.079,1.265-0.397,0.896-1.652,0.914c-0.832,0.012-1.689-0.022-2.223,0.419c-0.064,1.479,2.668,1.303,3.66,1.714
			c0.076,4.016-0.859,8.695,0.503,12.364c0.512,1.38,1.952,3.293,3.995,2.41c1.573-0.681,2.126-2.714,2.694-3.889
			c1.061,3.574,1.067,3.51,3.916,4.067c2.104,0.411,3.166-2.364,3.778-4.068c0.31,0.75,0.223,1.092,0.733,1.809
			c0.309,0.434,0.77,0.938,1.507,1.119c1.72,0.425,2.493-0.881,3.189-1.664l0.136-0.135c0.576,2.555,2.026,2.573,3.523,2.906
			c2.126,0.473,2.525-1.885,3.344-2.907c-0.231,4.354,0.144,2.243-1.54,4.081c-0.435,0.475-0.873,0.816-1.276,1.337
			c-2.013,2.602-4.867,9.164-1.185,10.859c0.956,0.441,3.567,0.848,4.618,0.415c1.09-0.449,1.6-1.843,1.862-3.243
			c0.604-3.237,0.054-6.792,0.295-10.058c0.793-0.171,1.302,0.283,1.781-0.504c-0.082-0.886-0.968-0.886-1.795-0.936
			c-0.041-1.544-0.049-3.108,0.001-4.651c0.113-3.403,0.587-2.918,0.659-3.804c-0.299-0.272-0.249-0.184-0.701-0.332
			c-0.53-0.174-0.38-0.045-0.59-0.415c-0.407-0.947,0.669-2.756-0.394-4.191c-0.893-1.205-2.04-0.953-3.472-1.636
			c-3.052-1.454-4.392,1.715-4.951,4.282c-0.92,4.226,0.08,6.96-1.443,8.66c-1.375,1.535-1.91-1.108-1.966-2.32
			c-0.201-4.298,1.437-4.254-0.566-5.025c-0.31-2.047,0.326-3.521-1.1-4.84c-0.425-0.393-1.423-0.56-2.07-0.897
			c-0.724-0.377-1.579-0.601-2.549-0.406c-3.063,0.613-3.474,5.704-3.752,8.043c-0.127,1.065-0.213-0.273-0.766,2.182
			c-0.907,4.036-2.834,5.401-3.43,2.565c-0.298-1.419-0.235-10.101,0.162-11.289c0.28-0.365,3.312-0.543,3.971-0.531
			c0.712,0.013,0.861,0.25,1.056,0.052c1.215-1.624-4.212-1.34-5.029-1.613L60.65,91.613z"/>
		<path fill="#333333" d="M103.422,99.995c1.784-0.504,2.302,1.732,2.247,2.87c-0.036,0.738-0.018,0.304-0.342,0.777
			c-0.708,1.031-0.042,6.987-2.425,8.272c-2.524,1.361-2.292-4.323-2.158-5.971C100.9,104.035,101.349,100.582,103.422,99.995
			L103.422,99.995z M88.755,98.779c-0.058,1.788,0.203,3.643,0.145,5.503c-0.029,0.915-0.054,1.834-0.181,2.726
			c-0.095,0.666-0.441,1.751-0.29,2.339c1.294,0.452,1.525-1.91,1.702-2.96c0.198-1.176,0.322-3.163,0.614-4.13
			c0.211-0.048,0.451-0.118,0.726-0.1c1.315,0.086,0.316,2.186,0.458,5.097c0.11,2.262,0.961,7.258,4.182,6.062
			c1.24-0.46,1.692-1.723,2.263-2.966c0.436,0.791,0.689,2.87,2.523,3.146c1.938,0.292,3.011,0.809,4.503-2.416
			c0.116-0.251,0.157-0.412,0.261-0.68c0.054-0.14,0.096-0.236,0.167-0.349c0.137-0.219,0.055-0.107,0.21-0.257
			c0.226,1.411,1.137,2.798,2.661,2.866c1.584,0.072,2.422-1.421,3.044-2.4c0.146,0.901-0.022,2.375,0.705,2.753
			c0.668,0.348,2.212,0.524,2.907,0.179c0.347-0.446,0.24-1.655,0.307-2.284c0.081-0.754,0.181-1.48,0.311-2.216
			c0.124-0.704,0.459-3.435,1.18-3.837c0.345,2.575-0.576,6.682,1.133,7.433c0.383,0.168,0.799,0.21,1.231,0.202
			c1.467-0.027,0.989-0.556,1.521-2.65c0.364-1.429,1.35-4.917,2.162-5.802c0.034,2.088-0.371,3.572,0.059,5.782
			c0.744,3.819,4.097,4.984,6.143,1.264c0.365-0.662,1.683-3.855,1.014-4.619c-1.074-1.11-0.992,2.569-2.047,4.058
			c-0.435,0.612-1.465,1.291-1.983,0.318c-0.337-0.632-0.434-1.809-0.458-2.636c-0.184-6.421,2.024-6.035-0.165-7.438
			c-0.865-0.555-1.381-0.661-2.564-0.493c-0.559,0.31-2.773,7.353-3.154,7.998c-0.116,0.195-0.065,0.113-0.174,0.227
			c-0.037-1.592-0.012-3.214-0.01-4.81c0.001-0.819,0.198-1.553-0.408-1.955c-0.49-0.327-1.272-0.435-1.951-0.303
			c-0.993,0.193-1.458,1.832-1.792,2.85c-0.212,0.648-0.955,3.035-1.018,3.511l-0.002-8.261c-0.377-0.578-2.017-0.78-2.729-0.542
			c-0.149,0.38-0.158,4.949-0.18,5.77c-0.032,1.244,0.099,1.927-0.252,2.709c-0.27,0.601-0.398,1.5-0.674,2.183
			c-0.82,2.024-2.194,1.957-2.504-0.501c-0.108-0.849-0.123-1.913-0.05-2.787c0.066-0.794,0.493-1.863,0.395-2.435
			c-0.398-0.457-0.461-0.317-0.985-0.673c-0.238-1.238,0.094-2.632-0.375-3.783c-0.578-1.418-1.139-1.136-2.449-1.712
			c-1.062-0.466-1.961-1.032-3.393-0.444c-1.043,0.428-1.497,1.148-1.999,2.162c-0.463,0.936-0.769,2.073-0.962,3.2
			c-0.171,1.001-0.214,2.927-0.455,3.697c-0.492,1.573-0.969,5.746-2.804,5.526c-1.054-0.987-0.9-3.65-0.759-5.245
			c0.083-0.94,0.211-1.823,0.413-2.71c0.175-0.766,0.653-1.766,0.614-2.513c-0.943-1.378-3.129-0.552-4.395-1.205
			c-0.071-0.788,0.069-1.309-0.117-2.059C90.107,97.81,89.41,98.243,88.755,98.779z"/>
		<path fill="#333333" d="M47.9,109.749c0.423-1.209,0.657-1.789,0.706-3.285c0.792,0.908,3.837,2.736,4.193,3.83
			c0.476,1.461-1.487,1.476-2.415,0.973c-0.432-0.234-0.826-0.567-1.169-0.849C48.569,109.887,48.503,110.067,47.9,109.749
			L47.9,109.749z M40.052,112.366c0.459-1.286,0.96-6.301,2.246-7.364c0.163,2.715-0.892,7.16,2.599,7.02
			c1.151-0.046,1.682-0.646,2.256-1.076c0.571,0.757,0.739,1.006,1.83,1.369c2.4,0.797,7.354,0.456,6.823-2.18
			c-0.464-2.311-7.164-4.296-4.851-7.398c0.358-0.48,1.575-1.012,2.311-0.527c0.1,0.065,1.087,1.346,2.014-0.019
			c0.397-0.585,0.86-1.899,0.281-2.513c-1.112-1.179-5.571-0.031-7.236,1.616c-1.569,1.552-1.094,3.164-0.019,4.792
			c-1.238,0.339-0.385,0.229-1.182,2.442c-0.352,0.978-0.787,1.908-1.929,1.72c-0.962-1.522-0.261-4.55-0.384-6.684
			c-0.072-1.257-0.557-2.758-2.015-2.345c-1.188,0.337-2.485,4.044-3.08,5.534c-0.11-1.524,0.101-6.248-0.034-6.986
			c-0.149-0.815-2.145-1.197-2.436-0.762c-0.17,0.256-0.479,9.294-0.513,10.034c-0.04,0.851-0.005,2.509,0.434,3.09
			C37.667,112.796,39.233,112.582,40.052,112.366z"/>
		<path fill="#333333" d="M31.574,103.918c-2.458,0.496-3.03-1.483-3.292-3.679c-0.702-5.876,2.323-8.163,3.319-6.544
			c0.342,0.555-0.023,2.236-0.021,3.101C31.586,99.159,31.619,101.561,31.574,103.918L31.574,103.918z M31.542,106.229
			c0.17,1.957-1.153,3.929-2.062,4.742c-1.238,1.106-3.05,1.817-5.276,1.291c-2.356-0.558-2.961-2.786-2.178-3.989
			c0.466-0.716,1.144-1.064,1.506-1.946c1.342-3.259-3.619-2.853-3.676,1.875c-0.059,4.809,3.561,6.05,7.694,5.8
			c7.49-0.452,7.096-7.333,7.096-13.283c0-2.258-0.007-4.517,0.001-6.774c0.014-4.223,0.123-3.111-2.983-3.505
			c-1.318-0.167-1.901,0.099-2.566,0.78C25.147,95.26,24.15,106.535,31.542,106.229z"/>
	</g>
	<path fill="#333333" d="M58.227,43.185h33.105c3.144,0,5.717,2.572,5.717,5.716v33.106c0,3.144-2.573,5.716-5.717,5.716H58.227
		c-3.144,0-5.716-2.572-5.716-5.716V48.901C52.51,45.757,55.083,43.185,58.227,43.185L58.227,43.185z M84.955,48.133
		c-1.103,0-2.005,0.902-2.005,2.005v4.799c0,1.103,0.902,2.005,2.005,2.005h5.034c1.102,0,2.004-0.902,2.004-2.005v-4.799
		c0-1.103-0.902-2.005-2.004-2.005H84.955L84.955,48.133z M92.015,62.02h-3.92c0.371,1.212,0.571,2.494,0.571,3.822
		c0,7.408-6.198,13.414-13.844,13.414S60.979,73.25,60.979,65.841c0-1.328,0.2-2.61,0.571-3.822h-4.091v18.814
		c0,0.974,0.797,1.771,1.771,1.771h31.015c0.974,0,1.771-0.797,1.771-1.771L92.015,62.02L92.015,62.02z M74.822,56.69
		c-4.94,0-8.945,3.88-8.945,8.667s4.005,8.667,8.945,8.667s8.945-3.88,8.945-8.667S79.762,56.69,74.822,56.69z"/>
</g>
</svg>
