<?xml version="1.0" encoding="utf-8"?>
<!-- Generator: Adobe Illustrator 15.1.0, SVG Export Plug-In . SVG Version: 6.00 Build 0)  -->
<!DOCTYPE svg PUBLIC "-//W3C//DTD SVG 1.1//EN" "http://www.w3.org/Graphics/SVG/1.1/DTD/svg11.dtd">
<svg version="1.1" id="Layer_1" xmlns="http://www.w3.org/2000/svg" xmlns:xlink="http://www.w3.org/1999/xlink" x="0px" y="0px"
	 width="477.969px" height="26.105px" viewBox="11.031 11.885 477.969 26.105"
	 enable-background="new 11.031 11.885 477.969 26.105" xml:space="preserve">
<g>
	<g>
		<g>
			<path fill="#908270" d="M21.988,33.199l-2.448,4.486h-8.379l13.793-24.733h10.16l13.497,24.733h-8.306l-2.336-4.486H21.988z
				 M29.923,18.293l-5.303,9.789h10.605L29.923,18.293z"/>
			<path fill="#908270" d="M51.586,12.953H71.61c7.119,0,9.937,1.595,9.937,9.123c0,6.377-1.149,9.455-8.75,9.455h-1.929H59.114
				v6.154h-7.528V12.953z M70.052,25.523c2.596,0,3.893-0.481,3.893-3.189c0-2.929-1.261-3.373-4.004-3.373H59.114v6.562H70.052z"/>
			<path fill="#908270" d="M109.92,12.953h7.564v24.732h-7.564v-9.527H92.864v9.527h-7.528V12.953h7.528v9.049h17.056V12.953z"/>
			<path fill="#908270" d="M133.066,12.805l5.34-0.111l6.006,0.037c8.603,0,11.458,2.04,11.458,10.938v1.188
				c0,9.381-0.556,12.568-11.68,12.939l-5.674,0.109c-0.778,0.039-1.594,0.039-2.373,0.039c-1.706,0-3.411-0.074-5.117-0.187
				c-5.45-0.407-8.713-2.262-8.973-8.231c-0.074-1.521-0.074-3.041-0.074-4.562C121.979,15.253,123.129,12.953,133.066,12.805z
				 M129.581,26.006c0,4.078,0.259,5.674,4.747,5.784c1.334,0.073,2.707,0.073,4.042,0.073c1.297,0,2.559-0.037,3.856-0.037
				c3.486,0,5.785-0.146,5.97-4.078c0.038-1.111,0.075-2.225,0.075-3.338c0-1.52-0.075-3.818-1.113-4.782
				c-0.889-0.778-2.966-0.853-4.449-0.853c-2.484,0-5.006,0-7.49,0.037c-2.521,0.074-5.08-0.111-5.525,3.3
				c-0.111,0.964-0.111,1.928-0.111,2.892v1.002H129.581z"/>
			<path fill="#908270" d="M167.856,31.494h17.093v6.191h-24.621V12.953h7.528V31.494z"/>
			<path fill="#908270" d="M198.267,12.805l5.34-0.111l6.006,0.037c8.603,0,11.458,2.04,11.458,10.938v1.188
				c0,9.381-0.557,12.568-11.68,12.939l-5.673,0.109c-0.778,0.039-1.594,0.039-2.373,0.039c-1.706,0-3.412-0.074-5.117-0.187
				c-5.45-0.407-8.713-2.262-8.973-8.231c-0.074-1.521-0.074-3.041-0.074-4.562C187.18,15.253,188.329,12.953,198.267,12.805z
				 M194.781,26.006c0,4.078,0.259,5.674,4.746,5.784c1.335,0.073,2.707,0.073,4.042,0.073c1.298,0,2.559-0.037,3.856-0.037
				c3.486,0,5.785-0.146,5.97-4.078c0.037-1.111,0.075-2.225,0.075-3.338c0-1.52-0.075-3.818-1.113-4.782
				c-0.89-0.778-2.966-0.853-4.449-0.853c-2.485,0-5.006,0-7.49,0.037c-2.521,0.074-5.08-0.111-5.525,3.3
				c-0.111,0.964-0.111,1.928-0.111,2.892L194.781,26.006L194.781,26.006z"/>
			<path fill="#908270" d="M232.611,29.788c0.037,0.147,0.037,0.26,0.037,0.407c0,2.263,2.15,2.226,3.856,2.299
				c1.187,0,2.374,0.037,3.56,0.037c1.668,0,3.337-0.037,5.042-0.148c1.669-0.074,3.338-0.035,3.338-2.15
				c0-2.002-1.854-2.188-3.486-2.188h-1.223c-4.116,0-8.27,0-12.385-0.258c-4.858-0.335-6.341-2.522-6.341-7.158
				c0-3.67,0.667-6.192,4.598-7.192c2.632-0.706,8.231-0.742,11.086-0.742l5.266,0.075c3.041,0.036,6.453,0.073,8.23,3.002
				c0.816,1.446,0.778,3.151,0.816,4.709h-7.378c-0.112-1.854-1.224-2.262-2.892-2.336c-1.224-0.037-2.448-0.037-3.634-0.037
				c-1.928,0-3.819,0.111-5.747,0.186c-1.335,0.073-2.744,0.371-2.744,1.853c0,2.411,2.596,2.151,4.301,2.226l5.043,0.073
				c1.668,0,3.3,0.038,4.969,0.038c5.746,0,9.121,1.113,9.121,7.526c0,6.081-2.669,7.194-8.38,7.64
				c-3.226,0.187-6.415,0.258-9.641,0.258c-1.668,0-3.374,0-5.042-0.109c-4.747-0.297-7.787-0.891-7.787-6.525v-1.482
				L232.611,29.788L232.611,29.788z"/>
		</g>
		<g>
			<path fill="#908270" d="M283.73,19.527h3.67c1.425,0,2.887,0.647,2.887,2.353c0,1.058-0.664,1.759-1.637,2.05v0.026
				c1.185,0.133,2.035,1.06,2.035,2.261c0,2.037-1.781,2.672-3.563,2.672h-3.392V19.527L283.73,19.527z M285.407,23.336h1.528
				c1.117,0,1.676-0.477,1.676-1.177c0-0.807-0.559-1.204-1.823-1.204h-1.381V23.336z M285.407,27.461h1.541
				c0.864,0,2.062-0.146,2.062-1.376c0-0.979-0.64-1.321-1.996-1.321h-1.606V27.461z"/>
			<path fill="#908270" d="M299.65,19.527h3.271c1.812,0,3.513,0.581,3.513,2.685c0,1.348-0.785,2.34-2.182,2.538l2.501,4.139
				h-2.021l-2.183-3.967h-1.224v3.967h-1.676V19.527z M302.63,23.494c0.943,0,2.048-0.08,2.048-1.295
				c0-1.111-1.037-1.244-1.902-1.244h-1.448v2.539H302.63z"/>
			<path fill="#908270" d="M318.375,19.527h1.451l4.057,9.362h-1.916l-0.878-2.143h-4.082l-0.851,2.143h-1.877L318.375,19.527z
				 M320.505,25.318l-1.45-3.807l-1.477,3.807H320.505z"/>
			<path fill="#908270" d="M332.232,19.527h2.223l4.561,6.956l0.026,0.025h-0.026l0.026-0.025v-6.956h1.677v9.362h-2.127
				l-4.656-7.182h-0.026v7.182h-1.677V19.527L332.232,19.527z"/>
			<path fill="#908270" d="M350.121,19.527h3.71c2.474,0,4.789,1.507,4.789,4.682c0,3.199-2.728,4.68-4.988,4.68h-3.511V19.527z
				 M353.046,27.382c2.104,0,3.817-0.899,3.817-3.173c0-2.275-1.489-3.175-3.537-3.175h-1.529v6.348H353.046z"/>
			<path fill="#908270" d="M378.718,19.527h1.677v9.362h-1.677V19.527z"/>
			<path fill="#908270" d="M389.76,19.527h3.711c2.475,0,4.788,1.507,4.788,4.682c0,3.199-2.726,4.68-4.987,4.68h-3.512V19.527z
				 M392.688,27.382c2.102,0,3.816-0.899,3.816-3.173c0-2.275-1.488-3.175-3.538-3.175h-1.53v6.348H392.688z"/>
			<path fill="#908270" d="M407.154,19.527h6.238v1.507h-4.562v2.302h4.321v1.508h-4.321v2.538h4.803v1.507h-6.479V19.527z"/>
			<path fill="#908270" d="M422.583,19.527h2.222l4.562,6.956l0.026,0.025h-0.026l0.026-0.025v-6.956h1.677v9.362h-2.127
				l-4.656-7.182h-0.026v7.182h-1.676L422.583,19.527L422.583,19.527z"/>
			<path fill="#908270" d="M442.398,21.034h-2.887v-1.507h7.446v1.507h-2.885v7.854h-1.676L442.398,21.034L442.398,21.034z"/>
			<path fill="#908270" d="M455.367,19.527h1.676v9.362h-1.676V19.527z"/>
			<path fill="#908270" d="M468.339,21.034h-2.887v-1.507h7.447v1.507h-2.886v7.854h-1.676L468.339,21.034L468.339,21.034z"/>
			<path fill="#908270" d="M483.647,24.883l-3.538-5.355h2.102l2.313,3.729l2.342-3.729h1.994l-3.537,5.355v4.006h-1.676V24.883z"/>
		</g>
	</g>
	<g>
		<rect x="269.898" y="11.885" fill="#908270" width="1.81" height="26.105"/>
	</g>
</g>
</svg>
