<?xml version="1.0" encoding="utf-8"?>
<!-- Generator: Adobe Illustrator 15.1.0, SVG Export Plug-In . SVG Version: 6.00 Build 0)  -->
<!DOCTYPE svg PUBLIC "-//W3C//DTD SVG 1.1//EN" "http://www.w3.org/Graphics/SVG/1.1/DTD/svg11.dtd">
<svg version="1.1" id="Layer_1" xmlns="http://www.w3.org/2000/svg" xmlns:xlink="http://www.w3.org/1999/xlink" x="0px" y="0px"
	 width="244.951px" height="25.212px" viewBox="11.094 12.694 244.951 25.212"
	 enable-background="new 11.094 12.694 244.951 25.212" xml:space="preserve">
<g>
	<g>
		<g>
			<path fill="#908270" d="M21.988,33.199l-2.448,4.486h-8.379l13.793-24.733h10.16l13.497,24.733h-8.306l-2.336-4.486H21.988z
				 M29.923,18.293l-5.303,9.789h10.605L29.923,18.293z"/>
			<path fill="#908270" d="M51.586,12.953H71.61c7.119,0,9.937,1.595,9.937,9.123c0,6.377-1.149,9.455-8.75,9.455h-1.929H59.114
				v6.154h-7.528V12.953z M70.052,25.523c2.596,0,3.893-0.481,3.893-3.189c0-2.929-1.261-3.373-4.004-3.373H59.114v6.562H70.052z"/>
			<path fill="#908270" d="M109.92,12.953h7.564v24.732h-7.564v-9.527H92.864v9.527h-7.528V12.953h7.528v9.049h17.056V12.953z"/>
			<path fill="#908270" d="M133.066,12.805l5.34-0.111l6.006,0.037c8.604,0,11.458,2.04,11.458,10.938v1.188
				c0,9.381-0.556,12.568-11.681,12.939l-5.674,0.109c-0.777,0.039-1.594,0.039-2.373,0.039c-1.706,0-3.411-0.074-5.117-0.187
				c-5.45-0.407-8.713-2.262-8.973-8.231c-0.074-1.521-0.074-3.041-0.074-4.562C121.979,15.253,123.129,12.953,133.066,12.805z
				 M129.581,26.006c0,4.078,0.259,5.674,4.747,5.784c1.334,0.073,2.707,0.073,4.042,0.073c1.297,0,2.56-0.037,3.856-0.037
				c3.485,0,5.785-0.146,5.969-4.078c0.039-1.111,0.076-2.225,0.076-3.338c0-1.52-0.076-3.818-1.113-4.782
				c-0.889-0.778-2.967-0.853-4.449-0.853c-2.484,0-5.006,0-7.49,0.037c-2.521,0.074-5.08-0.111-5.525,3.3
				c-0.111,0.964-0.111,1.928-0.111,2.892v1.002H129.581z"/>
			<path fill="#908270" d="M167.855,31.494h17.094v6.191h-24.621V12.953h7.527V31.494z"/>
			<path fill="#908270" d="M198.268,12.805l5.34-0.111l6.006,0.037c8.603,0,11.457,2.04,11.457,10.938v1.188
				c0,9.381-0.557,12.568-11.68,12.939l-5.673,0.109c-0.778,0.039-1.594,0.039-2.372,0.039c-1.707,0-3.412-0.074-5.117-0.187
				c-5.451-0.407-8.713-2.262-8.974-8.231c-0.073-1.521-0.073-3.041-0.073-4.562C187.18,15.253,188.329,12.953,198.268,12.805z
				 M194.781,26.006c0,4.078,0.259,5.674,4.746,5.784c1.334,0.073,2.707,0.073,4.041,0.073c1.299,0,2.56-0.037,3.856-0.037
				c3.486,0,5.785-0.146,5.97-4.078c0.037-1.111,0.076-2.225,0.076-3.338c0-1.52-0.076-3.818-1.113-4.782
				c-0.891-0.778-2.967-0.853-4.449-0.853c-2.485,0-5.006,0-7.49,0.037c-2.521,0.074-5.08-0.111-5.525,3.3
				c-0.11,0.964-0.11,1.928-0.11,2.892L194.781,26.006L194.781,26.006z"/>
			<path fill="#908270" d="M232.611,29.788c0.037,0.147,0.037,0.26,0.037,0.407c0,2.263,2.149,2.226,3.855,2.299
				c1.188,0,2.374,0.037,3.561,0.037c1.668,0,3.336-0.037,5.041-0.148c1.67-0.074,3.338-0.035,3.338-2.15
				c0-2.002-1.854-2.188-3.485-2.188h-1.224c-4.115,0-8.27,0-12.385-0.258c-4.857-0.335-6.341-2.522-6.341-7.158
				c0-3.67,0.667-6.192,4.599-7.192c2.631-0.706,8.23-0.742,11.086-0.742l5.266,0.075c3.041,0.036,6.453,0.073,8.23,3.002
				c0.816,1.446,0.778,3.151,0.816,4.709h-7.378c-0.112-1.854-1.224-2.262-2.892-2.336c-1.225-0.037-2.448-0.037-3.635-0.037
				c-1.928,0-3.818,0.111-5.746,0.186c-1.336,0.073-2.744,0.371-2.744,1.853c0,2.411,2.596,2.151,4.301,2.226l5.043,0.073
				c1.668,0,3.3,0.038,4.969,0.038c5.746,0,9.121,1.113,9.121,7.526c0,6.081-2.669,7.194-8.38,7.64
				c-3.226,0.187-6.415,0.258-9.642,0.258c-1.668,0-3.373,0-5.041-0.109c-4.748-0.297-7.787-0.891-7.787-6.525v-1.482
				L232.611,29.788L232.611,29.788z"/>
		</g>
	</g>
</g>
</svg>
