<?xml version="1.0" encoding="utf-8"?>
<!-- Generator: Adobe Illustrator 16.0.0, SVG Export Plug-In . SVG Version: 6.00 Build 0)  -->
<!DOCTYPE svg PUBLIC "-//W3C//DTD SVG 1.1//EN" "http://www.w3.org/Graphics/SVG/1.1/DTD/svg11.dtd">
<svg version="1.1" id="Layer_1" xmlns="http://www.w3.org/2000/svg" xmlns:xlink="http://www.w3.org/1999/xlink" x="0px" y="0px"
	 width="30px" height="30px" viewBox="0 0 30 30" enable-background="new 0 0 30 30" xml:space="preserve">
<g>
	<path fill="#F15722" d="M14.988,1c7.713,0,13.988,6.275,13.988,13.988c0,7.713-6.275,13.988-13.988,13.988
		C7.275,28.977,1,22.701,1,14.988C1,7.275,7.275,1,14.988,1 M14.988,0C6.71,0,0,6.71,0,14.988c0,8.278,6.71,14.988,14.988,14.988
		c8.278,0,14.988-6.71,14.988-14.988C29.977,6.71,23.267,0,14.988,0L14.988,0z"/>
</g>
<circle fill="#232323" cx="14.988" cy="14.988" r="13.059"/>
<path fill="#FFFFFF" d="M11.676,18.294l-1.026,1.88H7.136L12.92,9.802h4.26l5.662,10.372h-3.484l-0.979-1.88H11.676z M15.003,12.042
	l-2.224,4.105h4.447L15.003,12.042z"/>
</svg>
